<svg width="37" height="46" viewBox="0 0 37 46" fill="none" xmlns="http://www.w3.org/2000/svg">
<path d="M37 17.1876C37 12.7992 33.4098 9.24261 28.9798 9.24261C26.223 9.24261 23.7913 10.6207 22.3476 12.7187C21.1349 12.4471 19.8712 12.3019 18.5757 12.3019C17.2802 12.3019 15.9257 12.4566 14.6732 12.7487C13.2326 10.6333 10.7897 9.24261 8.0202 9.24261C3.59021 9.24261 0 12.7992 0 17.1876C0 19.5476 1.04057 21.6677 2.68987 23.1215C1.96481 24.9937 1.56643 27.027 1.56643 29.1517C1.56643 38.4575 9.18188 46 18.5741 46C27.9663 46 35.5818 38.4559 35.5818 29.1517C35.5818 26.9891 35.169 24.9211 34.4201 23.0205C36.004 21.5698 36.9968 19.494 36.9968 17.1876H37Z" fill="#EEC1AA"/>
<path d="M23.7866 30.2883C24.4877 31.9522 22.1293 33.6649 18.3017 33.5907C14.474 33.5165 12.3419 31.7185 13.2454 30.0879C13.9386 28.8376 16.2938 28.0562 18.6427 28.1004C20.9915 28.1446 23.2495 29.0144 23.7866 30.2899V30.2883Z" fill="#C98475"/>
<path d="M11.9371 27.2069C13.2221 27.2069 14.2637 26.1751 14.2637 24.9022C14.2637 23.6293 13.2221 22.5975 11.9371 22.5975C10.6522 22.5975 9.6106 23.6293 9.6106 24.9022C9.6106 26.1751 10.6522 27.2069 11.9371 27.2069Z" fill="black"/>
<path d="M24.5546 27.2069C25.8395 27.2069 26.8811 26.1751 26.8811 24.9022C26.8811 23.6293 25.8395 22.5975 24.5546 22.5975C23.2697 22.5975 22.228 23.6293 22.228 24.9022C22.228 26.1751 23.2697 27.2069 24.5546 27.2069Z" fill="black"/>
<path d="M13.1193 24.1066C13.6465 24.1066 14.0738 23.9405 14.0738 23.7356C14.0738 23.5307 13.6465 23.3646 13.1193 23.3646C12.5921 23.3646 12.1648 23.5307 12.1648 23.7356C12.1648 23.9405 12.5921 24.1066 13.1193 24.1066Z" fill="white"/>
<path d="M25.9264 24.1066C26.4536 24.1066 26.881 23.9624 26.881 23.7846C26.881 23.6067 26.4536 23.4625 25.9264 23.4625C25.3993 23.4625 24.9719 23.6067 24.9719 23.7846C24.9719 23.9624 25.3993 24.1066 25.9264 24.1066Z" fill="white"/>
<path d="M25.6667 36.2254C23.3354 37.6161 18.9277 37.7803 18.4545 34.3627C18.3987 33.9554 18.421 33.5513 18.4879 33.1598C18.5182 33.2561 18.5405 33.3524 18.5676 33.4471C18.6776 33.9049 18.8449 34.3548 19.068 34.7668C20.3348 36.9958 23.4788 36.4322 25.6667 36.2254Z" fill="#C98475"/>
<path d="M11.3076 35.9839C13.3394 36.156 16.5662 36.7353 17.8363 34.7905C18.2044 34.2222 18.3478 33.5892 18.4864 32.9199C18.5725 33.3098 18.6171 33.7186 18.5757 34.1306C18.2092 37.6067 13.6134 37.3304 11.3092 35.9839H11.3076Z" fill="#C98475"/>
<path d="M18.9995 8.13919C26.9756 8.13919 33.4416 6.31717 33.4416 4.06959C33.4416 1.82202 26.9756 0 18.9995 0C11.0233 0 4.55737 1.82202 4.55737 4.06959C4.55737 6.31717 11.0233 8.13919 18.9995 8.13919Z" fill="white"/>
<path d="M18.9996 8.74851C26.8411 8.74851 33.1978 6.95547 33.1978 4.74364C33.1978 2.53181 26.8411 0.73877 18.9996 0.73877C11.1581 0.73877 4.80127 2.53181 4.80127 4.74364C4.80127 6.95547 11.1581 8.74851 18.9996 8.74851Z" fill="white"/>
<path d="M18.9994 9.35468C26.7062 9.35468 32.9539 7.59132 32.9539 5.41611C32.9539 3.2409 26.7062 1.47754 18.9994 1.47754C11.2926 1.47754 5.04492 3.2409 5.04492 5.41611C5.04492 7.59132 11.2926 9.35468 18.9994 9.35468Z" fill="white"/>
<path d="M18.9995 9.96401C26.5717 9.96401 32.7102 8.22963 32.7102 6.09016C32.7102 3.95069 26.5717 2.21631 18.9995 2.21631C11.4273 2.21631 5.28882 3.95069 5.28882 6.09016C5.28882 8.22963 11.4273 9.96401 18.9995 9.96401Z" fill="white"/>
<path d="M18.9994 10.5734C26.4361 10.5734 32.4647 8.86799 32.4647 6.76427C32.4647 4.66054 26.4361 2.95514 18.9994 2.95514C11.5628 2.95514 5.53418 4.66054 5.53418 6.76427C5.53418 8.86799 11.5628 10.5734 18.9994 10.5734Z" fill="white"/>
<path d="M18.9995 11.1827C26.3015 11.1827 32.221 9.50629 32.221 7.43831C32.221 5.37034 26.3015 3.69391 18.9995 3.69391C11.6975 3.69391 5.77808 5.37034 5.77808 7.43831C5.77808 9.50629 11.6975 11.1827 18.9995 11.1827Z" fill="white"/>
<path d="M18.9994 11.792C26.1667 11.792 31.977 10.1446 31.977 8.11236C31.977 6.08013 26.1667 4.43268 18.9994 4.43268C11.832 4.43268 6.02173 6.08013 6.02173 8.11236C6.02173 10.1446 11.832 11.792 18.9994 11.792Z" fill="white"/>
<path d="M18.9995 12.3982C26.0322 12.3982 31.7333 10.7804 31.7333 8.78483C31.7333 6.78921 26.0322 5.17145 18.9995 5.17145C11.9668 5.17145 6.26562 6.78921 6.26562 8.78483C6.26562 10.7804 11.9668 12.3982 18.9995 12.3982Z" fill="white"/>
<path d="M18.9994 13.0075C25.8966 13.0075 31.4879 11.4187 31.4879 9.45888C31.4879 7.49901 25.8966 5.91022 18.9994 5.91022C12.1023 5.91022 6.51099 7.49901 6.51099 9.45888C6.51099 11.4187 12.1023 13.0075 18.9994 13.0075Z" fill="white"/>
<path d="M18.9995 13.6169C25.762 13.6169 31.2441 12.0571 31.2441 10.1329C31.2441 8.2088 25.762 6.64899 18.9995 6.64899C12.237 6.64899 6.75488 8.2088 6.75488 10.1329C6.75488 12.0571 12.237 13.6169 18.9995 13.6169Z" fill="white"/>
<path d="M18.9994 14.2262C25.6272 14.2262 31.0002 12.6954 31.0002 10.807C31.0002 8.91859 25.6272 7.38776 18.9994 7.38776C12.3715 7.38776 6.99854 8.91859 6.99854 10.807C6.99854 12.6954 12.3715 14.2262 18.9994 14.2262Z" fill="white"/>
<path d="M18.9996 14.834C25.4919 14.834 30.755 13.3321 30.755 11.4795C30.755 9.62686 25.4919 8.125 18.9996 8.125C12.5072 8.125 7.24414 9.62686 7.24414 11.4795C7.24414 13.3321 12.5072 14.834 18.9996 14.834Z" fill="white"/>
<path d="M18.9994 15.4417C25.3571 15.4417 30.511 13.9696 30.511 12.1535C30.511 10.3375 25.3571 8.86536 18.9994 8.86536C12.6417 8.86536 7.48779 10.3375 7.48779 12.1535C7.48779 13.9696 12.6417 15.4417 18.9994 15.4417Z" fill="white"/>
<path d="M18.9995 16.0511C25.2225 16.0511 30.2673 14.6079 30.2673 12.8276C30.2673 11.0473 25.2225 9.60413 18.9995 9.60413C12.7765 9.60413 7.73169 11.0473 7.73169 12.8276C7.73169 14.6079 12.7765 16.0511 18.9995 16.0511Z" fill="white"/>
<path d="M18.9996 16.6604C25.088 16.6604 30.0236 15.2462 30.0236 13.5016C30.0236 11.7571 25.088 10.3429 18.9996 10.3429C12.9112 10.3429 7.97559 11.7571 7.97559 13.5016C7.97559 15.2462 12.9112 16.6604 18.9996 16.6604Z" fill="white"/>
<path d="M18.9995 17.2697C24.9524 17.2697 29.7781 15.8845 29.7781 14.1757C29.7781 12.4669 24.9524 11.0817 18.9995 11.0817C13.0467 11.0817 8.22095 12.4669 8.22095 14.1757C8.22095 15.8845 13.0467 17.2697 18.9995 17.2697Z" fill="white"/>
<path d="M18.9994 17.8775C24.8176 17.8775 29.5342 16.5212 29.5342 14.8482C29.5342 13.1751 24.8176 11.8188 18.9994 11.8188C13.1812 11.8188 8.4646 13.1751 8.4646 14.8482C8.4646 16.5212 13.1812 17.8775 18.9994 17.8775Z" fill="white"/>
<path d="M18.9995 18.4852C24.683 18.4852 29.2904 17.1586 29.2904 15.5222C29.2904 13.8858 24.683 12.5592 18.9995 12.5592C13.3159 12.5592 8.7085 13.8858 8.7085 15.5222C8.7085 17.1586 13.3159 18.4852 18.9995 18.4852Z" fill="white"/>
<path d="M25.4772 8.86536H21.2289V4.38849H16.7702V8.86536H12.5203V12.7471H16.7702V17.224H21.2289V12.7471H25.4772V8.86536Z" fill="#C1272D"/>
</svg>
