<svg width="60" height="60" viewBox="0 0 60 60" fill="none" xmlns="http://www.w3.org/2000/svg">
<path d="M38.125 16.25C41.2316 16.25 43.75 13.7316 43.75 10.625C43.75 7.5184 41.2316 5 38.125 5C35.0184 5 32.5 7.5184 32.5 10.625C32.5 13.7316 35.0184 16.25 38.125 16.25Z" fill="#333333"/>
<path d="M26.8251 21.6029C25.2658 21.9894 24.2024 22.5724 23.3439 23.2952C22.0554 24.3804 21.0168 25.9461 19.6115 28.4051C18.9265 29.6039 17.3994 30.0204 16.2006 29.3354C15.0018 28.6502 14.5854 27.1231 15.2704 25.9244C16.6685 23.4777 18.0828 21.189 20.1231 19.4707C22.2535 17.6767 24.8603 16.661 28.378 16.27C29.8476 16.1067 31.4641 16.1396 32.9808 16.8165C34.5729 17.5272 35.7345 18.8007 36.5271 20.5029C37.5944 22.7947 38.3884 24.1592 39.0244 24.9494C39.3301 25.3291 39.544 25.5052 39.6648 25.5841C39.7611 25.647 39.8016 25.6517 39.8173 25.6535L39.819 25.6537C39.9279 25.667 40.2795 25.6532 41.3155 25.1954C41.7663 24.9961 42.2593 24.7552 42.8613 24.4611L43.0053 24.3907C43.6568 24.0726 44.4025 23.7107 45.2353 23.3405C46.4969 22.7797 47.9744 23.348 48.5351 24.6097C49.0959 25.8714 48.5278 27.3487 47.266 27.9096C46.5219 28.2402 45.8458 28.568 45.1995 28.8836L45.0361 28.9635C44.4599 29.2451 43.8801 29.5285 43.3369 29.7686C42.211 30.2662 40.7726 30.8067 39.2146 30.6171C37.5703 30.4169 36.3021 29.4892 35.2591 28.2426L31.8419 34.8332L36.5665 40.9816C36.8484 41.3482 37.0229 41.786 37.0708 42.246L38.1116 52.2412C38.2546 53.6145 37.2573 54.8437 35.884 54.9866C34.5106 55.1297 33.2815 54.1324 33.1385 52.759L32.171 43.4674L29.3013 39.733L29.2773 39.7794L29.1716 39.5644L23.8686 32.6634C23.3386 31.9737 23.2051 31.0584 23.5161 30.2462L26.8251 21.6029Z" fill="#333333"/>
<path d="M23.0401 36.2589L21.2004 41.2095L13.9489 40.6329C12.5725 40.5234 11.3681 41.5505 11.2586 42.9267C11.1491 44.3031 12.1762 45.5076 13.5525 45.6171L22.6875 46.3435C23.8019 46.4321 24.8396 45.7701 25.2291 44.7222L26.6355 40.9376L23.0401 36.2589Z" fill="#333333"/>
</svg>
