<svg width="87" height="24" viewBox="0 0 87 24" fill="none" xmlns="http://www.w3.org/2000/svg">
<path fill-rule="evenodd" clip-rule="evenodd" d="M2.75387 10.1883C4.67387 8.0613 7.58778 5.6246 11.3283 3.9661C9.36816 6.0932 8.17484 8.9102 8.17484 12C8.17484 15.0898 9.36816 17.9068 11.3283 20.0339C7.58778 18.3754 4.67387 15.9387 2.75387 13.8117C1.80699 12.7628 1.80699 11.2372 2.75387 10.1883ZM1.22219 8.8642C4.70458 5.0063 11.3235 0.0926999 20.255 0.00129986C20.3156 0.000399858 20.3763 0 20.4371 0H20.4668H20.5083C29.568 0 36.2791 4.97 39.7944 8.8642C41.4239 10.6695 41.4239 13.3305 39.7944 15.1358C36.2791 19.03 29.568 24 20.5083 24H20.4668H20.4371C20.3763 24 20.3156 23.9996 20.255 23.9987C11.3235 23.9073 4.70458 18.9937 1.2222 15.1358C-0.407393 13.3305 -0.407403 10.6695 1.22219 8.8642ZM20.4661 2C20.4041 2.0002 20.3422 2.0005 20.2803 2.0012C14.7091 2.0831 10.2185 6.5284 10.2185 12C10.2185 17.4716 14.7091 21.9169 20.2803 21.9988C20.3422 21.9995 20.4041 21.9998 20.4661 22C26.0963 21.9847 30.6556 17.5134 30.6556 12C30.6556 6.4866 26.0963 2.0153 20.4661 2ZM32.6993 12C32.6993 15.1409 31.4663 17.9999 29.448 20.1388C33.3041 18.4794 36.3018 15.984 38.2626 13.8117C39.2096 12.7628 39.2096 11.2372 38.2626 10.1883C36.3018 8.016 33.3041 5.5206 29.448 3.8612C31.4663 6.0001 32.6993 8.8591 32.6993 12ZM20.5082 18C23.8943 18 26.6393 15.3137 26.6393 12C26.6393 11.0737 26.4249 10.1965 26.0419 9.4132C25.6719 9.7757 25.1606 10 24.5957 10C23.467 10 22.552 9.1046 22.552 8C22.552 7.4472 22.7812 6.9468 23.1516 6.5848C22.3512 6.2099 21.4548 6 20.5082 6C17.1221 6 14.3771 8.6863 14.3771 12C14.3771 15.3137 17.1221 18 20.5082 18Z" fill="#333333"/>
<path fill-rule="evenodd" clip-rule="evenodd" d="M48.7373 10.1883C50.6573 8.0613 53.5712 5.6246 57.3117 3.9661C55.3516 6.0932 54.1582 8.9102 54.1582 12C54.1582 15.0898 55.3516 17.9068 57.3117 20.0339C53.5712 18.3754 50.6573 15.9387 48.7373 13.8117C47.7904 12.7628 47.7904 11.2372 48.7373 10.1883ZM47.2056 8.8642C50.688 5.0063 57.3069 0.0926999 66.2384 0.00129986C66.299 0.000399858 66.3597 0 66.4205 0H66.4502H66.4917C75.5514 0 82.2625 4.97 85.7778 8.8642C87.4073 10.6695 87.4073 13.3305 85.7778 15.1358C82.2625 19.03 75.5514 24 66.4917 24H66.4502H66.4205C66.3597 24 66.299 23.9996 66.2384 23.9987C57.3069 23.9073 50.688 18.9937 47.2056 15.1358C45.576 13.3305 45.576 10.6695 47.2056 8.8642ZM66.4495 2C66.3875 2.0002 66.3256 2.0005 66.2637 2.0012C60.6925 2.0831 56.2019 6.5284 56.2019 12C56.2019 17.4716 60.6925 21.9169 66.2637 21.9988C66.3256 21.9995 66.3875 21.9998 66.4495 22C72.0797 21.9847 76.639 17.5134 76.639 12C76.639 6.4866 72.0797 2.0153 66.4495 2ZM78.6827 12C78.6827 15.1409 77.4497 17.9999 75.4314 20.1388C79.2875 18.4794 82.2852 15.984 84.246 13.8117C85.193 12.7628 85.193 11.2372 84.246 10.1883C82.2852 8.016 79.2875 5.5206 75.4314 3.8612C77.4497 6.0001 78.6827 8.8591 78.6827 12ZM66.4916 18C69.8777 18 72.6227 15.3137 72.6227 12C72.6227 11.0737 72.4082 10.1965 72.0253 9.4132C71.6553 9.7757 71.144 10 70.5791 10C69.4504 10 68.5354 9.1046 68.5354 8C68.5354 7.4472 68.7646 6.9468 69.135 6.5848C68.3346 6.2099 67.4382 6 66.4916 6C63.1055 6 60.3605 8.6863 60.3605 12C60.3605 15.3137 63.1055 18 66.4916 18Z" fill="#333333"/>
</svg>
