<svg width="60" height="17" viewBox="0 0 60 17" fill="none" xmlns="http://www.w3.org/2000/svg">
<path fill-rule="evenodd" clip-rule="evenodd" d="M1.89922 7.21671C3.22336 5.71009 5.23295 3.98409 7.81261 2.80932C6.4608 4.31602 5.63782 6.31139 5.63782 8.5C5.63782 10.6886 6.4608 12.684 7.81261 14.1907C5.23295 13.0159 3.22336 11.2899 1.89922 9.78329C1.2462 9.04032 1.2462 7.95968 1.89922 7.21671ZM0.842889 6.27881C3.24454 3.54613 7.80929 0.0656624 13.969 0.000920733C14.0108 0.000283233 14.0526 0 14.0945 0H14.1151H14.1437C20.3917 0 25.0201 3.52042 27.4444 6.27881C28.5682 7.55756 28.5682 9.44244 27.4444 10.7212C25.0201 13.4796 20.3917 17 14.1437 17H14.1151H14.0945C14.0526 17 14.0108 16.9997 13.969 16.9991C7.80929 16.9343 3.24454 13.4539 0.842896 10.7212C-0.280961 9.44244 -0.280968 7.55756 0.842889 6.27881ZM14.1146 1.41667C14.0718 1.41681 14.0291 1.41702 13.9864 1.41752C10.1442 1.47553 7.04727 4.62428 7.04727 8.5C7.04727 12.3757 10.1442 15.5245 13.9864 15.5825C14.0291 15.583 14.0718 15.5832 14.1146 15.5833C17.9975 15.5725 21.1418 12.4053 21.1418 8.5C21.1418 4.59467 17.9975 1.4275 14.1146 1.41667ZM22.5513 8.5C22.5513 10.7248 21.7009 12.7499 20.309 14.265C22.9683 13.0896 25.0357 11.322 26.388 9.78329C27.0411 9.04032 27.0411 7.95968 26.388 7.21671C25.0357 5.678 22.9683 3.91043 20.309 2.73502C21.7009 4.25007 22.5513 6.2752 22.5513 8.5ZM14.1436 12.75C16.4788 12.75 18.372 10.8472 18.372 8.5C18.372 7.84387 18.224 7.22252 17.9599 6.66768C17.7048 6.92445 17.3521 7.08333 16.9626 7.08333C16.1841 7.08333 15.5531 6.44909 15.5531 5.66667C15.5531 5.2751 15.7112 4.92065 15.9667 4.66423C15.4146 4.39868 14.7964 4.25 14.1436 4.25C11.8083 4.25 9.91523 6.1528 9.91523 8.5C9.91523 10.8472 11.8083 12.75 14.1436 12.75Z" fill="#333333"/>
<path fill-rule="evenodd" clip-rule="evenodd" d="M33.612 7.21671C34.9361 5.71009 36.9457 3.98409 39.5253 2.80932C38.1735 4.31602 37.3506 6.31139 37.3506 8.5C37.3506 10.6886 38.1735 12.684 39.5253 14.1907C36.9457 13.0159 34.9361 11.2899 33.612 9.78329C32.9589 9.04032 32.9589 7.95968 33.612 7.21671ZM32.5556 6.27881C34.9573 3.54613 39.522 0.0656624 45.6817 0.000920733C45.7235 0.000283233 45.7654 0 45.8073 0H45.8278H45.8564C52.1044 0 56.7328 3.52042 59.1571 6.27881C60.281 7.55756 60.281 9.44244 59.1571 10.7212C56.7328 13.4796 52.1044 17 45.8564 17H45.8278H45.8073C45.7654 17 45.7235 16.9997 45.6817 16.9991C39.522 16.9343 34.9573 13.4539 32.5556 10.7212C31.4318 9.44244 31.4318 7.55756 32.5556 6.27881ZM45.8273 1.41667C45.7845 1.41681 45.7418 1.41702 45.6992 1.41752C41.8569 1.47553 38.76 4.62428 38.76 8.5C38.76 12.3757 41.8569 15.5245 45.6992 15.5825C45.7418 15.583 45.7845 15.5832 45.8273 15.5833C49.7102 15.5725 52.8546 12.4053 52.8546 8.5C52.8546 4.59467 49.7102 1.4275 45.8273 1.41667ZM54.264 8.5C54.264 10.7248 53.4136 12.7499 52.0217 14.265C54.6811 13.0896 56.7485 11.322 58.1008 9.78329C58.7538 9.04032 58.7538 7.95968 58.1008 7.21671C56.7485 5.678 54.6811 3.91043 52.0217 2.73502C53.4136 4.25007 54.264 6.2752 54.264 8.5ZM45.8563 12.75C48.1916 12.75 50.0847 10.8472 50.0847 8.5C50.0847 7.84387 49.9368 7.22252 49.6726 6.66768C49.4175 6.92445 49.0649 7.08333 48.6753 7.08333C47.8969 7.08333 47.2659 6.44909 47.2659 5.66667C47.2659 5.2751 47.4239 4.92065 47.6794 4.66423C47.1274 4.39868 46.5091 4.25 45.8563 4.25C43.5211 4.25 41.628 6.1528 41.628 8.5C41.628 10.8472 43.5211 12.75 45.8563 12.75Z" fill="#333333"/>
</svg>
