<svg width="61" height="60" viewBox="0 0 61 60" fill="none" xmlns="http://www.w3.org/2000/svg">
<path fill-rule="evenodd" clip-rule="evenodd" d="M47.3563 32.4432L47.1458 32.0017C46.2379 30.0974 45.9727 28.0798 45.8921 26.2899C45.8516 25.3879 45.8569 24.4964 45.8659 23.6769C45.8671 23.5642 45.8685 23.4533 45.8698 23.3438C45.878 22.6366 45.8855 21.9942 45.8709 21.3756C45.8086 18.9384 45.0288 16.5656 43.6182 14.5342C42.0118 12.5734 39.9129 11.032 37.5138 10.059L37.4721 10.0421L37.4309 10.0237C34.1837 8.57191 30.6447 7.82234 27.0624 7.82915H27.0596C22.5517 7.83279 18.2393 9.56547 15.0686 12.6316C11.8994 15.6961 10.1299 19.8403 10.1335 24.1499C10.1356 26.7053 10.8916 29.6193 12.205 32.3152C13.5213 35.0174 15.3048 37.3107 17.1825 38.7314L18.1733 39.4812L18.1826 50.6256C18.5959 51.1281 19.3984 51.7483 20.6018 52.2859C22.0745 52.9438 23.5546 53.2097 24.4111 53.1402L24.5143 53.1318L24.6179 53.1317C27.104 53.1297 28.2668 52.4378 28.7671 52.0171C28.9485 51.8646 29.0746 51.7211 29.1591 51.6081L29.1533 44.6888L32.3272 45.4931L32.3288 45.4934L32.33 45.4937L32.3317 45.4942L32.3471 45.4978C32.3668 45.5026 32.4007 45.5106 32.4477 45.5213C32.542 45.5427 32.6888 45.5747 32.8804 45.6123C33.2647 45.6878 33.8238 45.7851 34.4978 45.8663C35.8661 46.0313 37.6115 46.1181 39.2968 45.8736C40.9964 45.6269 42.4126 45.0769 43.386 44.1592C44.2927 43.3044 45.0902 41.8733 45.0881 39.2531L45.0863 37.1157L47.2228 36.7832L47.2245 36.7829L47.2348 36.7812C47.2424 36.7799 47.2533 36.7779 47.2673 36.7753C47.2813 36.7728 47.2983 36.7696 47.3181 36.7657C47.3984 36.7501 47.523 36.7242 47.6773 36.6863C47.9936 36.6088 48.3976 36.4904 48.7914 36.3268C49.2002 36.1567 49.4944 35.9802 49.6678 35.8297C49.7027 35.7994 49.7272 35.7752 49.744 35.7571C49.7378 35.6899 49.714 35.5524 49.6251 35.3301C49.4859 34.9823 49.2484 34.5804 48.9443 34.1649C48.647 33.7587 48.3309 33.4001 48.0847 33.1402C47.9635 33.0122 47.8638 32.9129 47.798 32.8491C47.7813 32.8328 47.767 32.8189 47.755 32.8076C47.7436 32.7967 47.7345 32.7879 47.7277 32.7817L47.7173 32.7719L47.7159 32.7707L47.3563 32.4432ZM31.6977 47.9151C31.6977 47.9151 32.7169 48.1733 34.2397 48.3538C38.7397 48.8873 47.6376 48.7424 47.6297 39.2509C47.6297 39.2509 51.8265 38.5979 52.2496 36.2381C52.6728 33.8783 49.447 30.9402 49.447 30.9402C48.349 28.6372 48.3811 25.9242 48.4112 23.3773C48.4196 22.6732 48.4277 21.9817 48.4118 21.3152C48.3368 18.3596 47.3813 15.4873 45.6598 13.0422C43.7749 10.7148 41.304 8.8921 38.4827 7.74779C34.9025 6.14714 31.003 5.32165 27.0575 5.32915C21.8908 5.33331 16.9372 7.31878 13.2867 10.8487C9.63615 14.3787 7.58765 19.1641 7.5918 24.1521C7.5968 30.1532 11.096 37.2801 15.6327 40.7129L15.6415 51.3304C16.9302 53.9834 21.7848 55.8617 24.6199 55.6317C30.6415 55.6269 31.7012 52.2066 31.7012 52.2066L31.6977 47.9151Z" fill="#333333"/>
<path fill-rule="evenodd" clip-rule="evenodd" d="M33.9288 25.6167C34.5507 25.6162 34.6539 25.5025 34.8518 25.2844C34.9664 25.158 35.1128 24.9965 35.4103 24.8019C36.2343 25.3304 37.2066 25.607 38.1986 25.5951L41.3485 24.495C42.2358 23.7937 42.8446 22.822 43.0729 21.7424C43.3012 20.6629 43.1352 19.541 42.6026 18.5646C42.0701 17.5884 41.2034 16.8166 40.1475 16.3789C39.9056 15.3341 39.2978 14.3999 38.4249 13.7314L35.3483 12.7035L35.002 12.7037C34.317 11.7489 33.2894 11.0681 32.1144 10.791L26.7908 10.4404C25.6947 10.5285 24.6615 10.9669 23.8573 11.6852C23.4771 11.5997 23.0878 11.5556 22.6972 11.5536C21.7513 11.5562 20.8264 11.8208 20.034 12.3155C19.2418 12.8102 18.616 13.5139 18.2323 14.3415L15.7282 16.0424C15.1054 16.8515 14.7706 17.8306 14.7731 18.8356C14.7673 19.2557 14.826 19.6745 14.9472 20.0784C14.2906 20.8955 13.9379 21.899 13.9454 22.9299C13.9448 24.1254 14.4229 25.2755 15.2813 26.1439C15.3512 26.9997 15.6644 27.821 16.1868 28.5187C16.7092 29.2165 17.4212 29.7641 18.2454 30.1025C19.1952 30.6715 19.9998 31.437 20.5999 32.3429C21.2 33.2487 21.4482 34.2719 21.5806 35.337L26.8115 35.3327L26.8073 30.3607C26.8054 29.478 27.062 28.6124 27.5479 27.862C27.6216 27.7482 27.6905 27.6377 27.7571 27.5309C28.1293 26.9332 28.4317 26.4477 29.133 26.1162C29.908 25.8316 30.6059 25.3835 31.175 24.8052C31.9868 25.3347 32.9464 25.6176 33.9288 25.6167ZM17.76 25.4477L27.9252 23.8819L21.3269 16.6949L17.76 25.4477ZM28.5551 19.6026L31.5646 14.1022L37.262 17.0074L34.2526 22.5077L28.5551 19.6026Z" fill="#333333"/>
<path d="M43.1807 29.8021C43.1816 30.8377 42.3288 31.6778 41.2761 31.6787C40.2232 31.6795 39.3691 30.8407 39.3682 29.8052C39.3674 28.7697 40.2201 27.9295 41.2729 27.9287C42.3256 27.9278 43.1799 28.7666 43.1807 29.8021Z" fill="#333333"/>
<path fill-rule="evenodd" clip-rule="evenodd" d="M26.6684 40.4404L21.585 40.4446L21.583 37.9446L26.6663 37.9404L26.6684 40.4404Z" fill="#333333"/>
<path fill-rule="evenodd" clip-rule="evenodd" d="M26.6723 45.4404L21.5889 45.4446L21.5869 42.9446L26.6702 42.9404L26.6723 45.4404Z" fill="#333333"/>
<path fill-rule="evenodd" clip-rule="evenodd" d="M26.6763 50.4404L21.593 50.4446L21.5908 47.9446L26.6742 47.9404L26.6763 50.4404Z" fill="#333333"/>
</svg>
