<svg width="60" height="60" viewBox="0 0 60 60" fill="none" xmlns="http://www.w3.org/2000/svg">
<path fill-rule="evenodd" clip-rule="evenodd" d="M46.5804 32.4435L46.3734 32.002C45.4804 30.0977 45.2195 28.0801 45.1402 26.2902C45.1004 25.3882 45.1056 24.4967 45.1145 23.6772C45.1156 23.5645 45.117 23.4536 45.1182 23.3441C45.1264 22.6369 45.1337 21.9945 45.1194 21.3759C45.0581 18.9387 44.2911 16.5659 42.9036 14.5345C41.3235 12.5737 39.259 11.0323 36.8992 10.0593L36.8582 10.0424L36.8177 10.024C33.6237 8.57222 30.1427 7.82264 26.6192 7.82946H26.6165C22.1825 7.83309 17.9407 9.56577 14.822 12.6319C11.7047 15.6964 9.96424 19.8406 9.96778 24.1502C9.96987 26.7056 10.7134 29.6196 12.0053 32.3155C13.3001 35.0177 15.0544 37.311 16.9012 38.7317L17.8759 39.4815L17.885 50.6259C18.2915 51.1284 19.0809 51.7486 20.2645 52.2862C21.7131 52.9441 23.1689 53.21 24.0114 53.1405L24.1129 53.1321L24.2147 53.132C26.6601 53.13 27.8039 52.4381 28.296 52.0174C28.4744 51.8649 28.5984 51.7214 28.6815 51.6084L28.6759 44.6891L31.7977 45.4934L31.7992 45.4937L31.8005 45.494L31.8021 45.4945L31.8172 45.4981C31.8366 45.5029 31.87 45.5109 31.9162 45.5216C32.009 45.543 32.1534 45.575 32.3419 45.6126C32.7199 45.6881 33.2697 45.7854 33.9327 45.8666C35.2786 46.0316 36.9954 46.1184 38.653 45.8739C40.3247 45.6272 41.7177 45.0772 42.6752 44.1595C43.567 43.3047 44.3515 41.8736 44.3494 39.2534L44.3476 37.116L46.4491 36.7835L46.4507 36.7832L46.4609 36.7815C46.4684 36.7802 46.4791 36.7782 46.4929 36.7756C46.5066 36.7731 46.5234 36.7699 46.5429 36.766C46.6219 36.7504 46.7444 36.7245 46.8961 36.6866C47.2072 36.6091 47.6046 36.4907 47.992 36.3271C48.3941 36.157 48.6835 35.9805 48.854 35.83C48.8884 35.7997 48.9125 35.7755 48.929 35.7574C48.9229 35.6902 48.8995 35.5527 48.812 35.3304C48.6751 34.9826 48.4415 34.5807 48.1424 34.1652C47.85 33.759 47.539 33.4004 47.2969 33.1405C47.1776 33.0125 47.0796 32.9132 47.0149 32.8494C46.9985 32.8331 46.9844 32.8192 46.9726 32.8079C46.9614 32.797 46.9524 32.7882 46.9457 32.782L46.9355 32.7722L46.9341 32.771L46.5804 32.4435ZM31.1785 47.9154C31.1785 47.9154 32.181 48.1736 33.6789 48.3541C38.1051 48.8876 46.8571 48.7427 46.8494 39.2512C46.8494 39.2512 50.9774 38.5982 51.3935 36.2384C51.8097 33.8786 48.6369 30.9405 48.6369 30.9405C47.5569 28.6375 47.5884 25.9245 47.618 23.3776C47.6262 22.6735 47.6342 21.982 47.6186 21.3155C47.5449 18.3599 46.605 15.4876 44.9117 13.0425C43.0577 10.7151 40.6274 8.89241 37.8522 7.7481C34.3307 6.14745 30.4952 5.32196 26.6144 5.32946C21.5324 5.33362 16.66 7.31908 13.0694 10.849C9.47862 14.379 7.46369 19.1644 7.46778 24.1524C7.47269 30.1535 10.9145 37.2804 15.3769 40.7132L15.3855 51.3307C16.6531 53.9837 21.4281 55.862 24.2167 55.632C30.1396 55.6272 31.182 52.2069 31.182 52.2069L31.1785 47.9154Z" fill="#333333"/>
<path fill-rule="evenodd" clip-rule="evenodd" d="M33.3727 25.617C33.9845 25.6165 34.086 25.5027 34.2806 25.2846C34.3933 25.1582 34.5373 24.9967 34.83 24.8021C35.6405 25.3306 36.5968 25.6072 37.5726 25.5954L40.6708 24.4952C41.5436 23.794 42.1423 22.8222 42.367 21.7426C42.5915 20.6631 42.4282 19.5412 41.9043 18.5649C41.3806 17.5886 40.5281 16.8169 39.4895 16.3791C39.2516 15.3344 38.6537 14.4001 37.7951 13.7316L34.769 12.7037L34.4283 12.704C33.7546 11.7491 32.7438 11.0684 31.5881 10.7912L26.3517 10.4407C25.2736 10.5287 24.2573 10.9672 23.4663 11.6855C23.0923 11.6 22.7095 11.5558 22.3252 11.5538C21.3948 11.5564 20.4851 11.8211 19.7057 12.3158C18.9265 12.8105 18.311 13.5141 17.9336 14.3417L15.4705 16.0426C14.858 16.8517 14.5286 17.8309 14.5311 18.8359C14.5253 19.256 14.5831 19.6747 14.7023 20.0786C14.0565 20.8957 13.7096 21.8992 13.717 22.9301C13.7163 24.1256 14.1866 25.2757 15.031 26.1441C15.0997 27 15.4077 27.8212 15.9216 28.519C16.4355 29.2167 17.1357 29.7644 17.9465 30.1027C18.8807 30.6717 19.6721 31.4372 20.2623 32.3431C20.8526 33.249 21.0967 34.2721 21.227 35.3372L26.3721 35.333L26.368 30.361C26.3661 29.4782 26.6185 28.6126 27.0965 27.8622C27.169 27.7485 27.2367 27.638 27.3022 27.5311C27.6683 26.9335 27.9657 26.448 28.6556 26.1165C29.4178 25.8319 30.1043 25.3837 30.6641 24.8055C31.4626 25.335 32.4065 25.6179 33.3727 25.617ZM17.469 25.448L27.4676 23.8821L20.9775 16.6951L17.469 25.448ZM28.0871 19.6029L31.0473 14.1025L36.6513 17.0076L33.6912 22.508L28.0871 19.6029Z" fill="#333333"/>
<path d="M42.4725 29.8025C42.4733 30.8381 41.6346 31.6783 40.5991 31.6791C39.5635 31.6799 38.7233 30.8411 38.7225 29.8056C38.7217 28.7701 39.5605 27.9299 40.596 27.9291C41.6315 27.9283 42.4717 28.767 42.4725 29.8025Z" fill="#333333"/>
<path fill-rule="evenodd" clip-rule="evenodd" d="M26.2312 40.4409L21.2312 40.445L21.2292 37.945L26.2292 37.9409L26.2312 40.4409Z" fill="#333333"/>
<path fill-rule="evenodd" clip-rule="evenodd" d="M26.2353 45.4409L21.2353 45.445L21.2333 42.945L26.2333 42.9409L26.2353 45.4409Z" fill="#333333"/>
<path fill-rule="evenodd" clip-rule="evenodd" d="M26.2392 50.4409L21.2392 50.445L21.2371 47.945L26.2371 47.9409L26.2392 50.4409Z" fill="#333333"/>
</svg>
