<svg width="45" height="51" viewBox="0 0 45 51" fill="none" xmlns="http://www.w3.org/2000/svg">
<path fill-rule="evenodd" clip-rule="evenodd" d="M39.5804 27.4435L39.3734 27.002C38.4804 25.0977 38.2195 23.0801 38.1402 21.2902C38.1004 20.3882 38.1056 19.4967 38.1145 18.6772C38.1156 18.5645 38.117 18.4536 38.1182 18.3441C38.1264 17.6369 38.1337 16.9945 38.1194 16.3759C38.0581 13.9387 37.2911 11.5659 35.9036 9.53448C34.3235 7.57373 32.259 6.03234 29.8992 5.05931L29.8582 5.04238L29.8177 5.02402C26.6237 3.57222 23.1427 2.82264 19.6192 2.82946H19.6165C15.1825 2.83309 10.9407 4.56577 7.82198 7.63186C4.70473 10.6964 2.96424 14.8406 2.96778 19.1502C2.96987 21.7056 3.71344 24.6196 5.00531 27.3155C6.30011 30.0177 8.05435 32.311 9.90123 33.7317L10.8759 34.4815L10.885 45.6259C11.2915 46.1284 12.0809 46.7486 13.2645 47.2862C14.7131 47.9441 16.1689 48.21 17.0114 48.1405L17.1129 48.1321L17.2147 48.132C19.6601 48.13 20.8039 47.4381 21.296 47.0174C21.4744 46.8649 21.5984 46.7214 21.6815 46.6084L21.6759 39.6891L24.7977 40.4934L24.7992 40.4937L24.8005 40.494L24.8021 40.4945L24.8172 40.4981C24.8366 40.5029 24.87 40.5109 24.9162 40.5216C25.009 40.543 25.1534 40.575 25.3419 40.6126C25.7199 40.6881 26.2697 40.7854 26.9327 40.8666C28.2786 41.0316 29.9954 41.1184 31.653 40.8739C33.3247 40.6272 34.7177 40.0772 35.6752 39.1595C36.567 38.3047 37.3515 36.8736 37.3494 34.2534L37.3476 32.116L39.4491 31.7835L39.4507 31.7832L39.4609 31.7815C39.4684 31.7802 39.4791 31.7782 39.4929 31.7756C39.5066 31.7731 39.5234 31.7699 39.5429 31.766C39.6219 31.7504 39.7444 31.7245 39.8961 31.6866C40.2072 31.6091 40.6046 31.4907 40.992 31.3271C41.3941 31.157 41.6835 30.9805 41.854 30.83C41.8884 30.7997 41.9125 30.7755 41.929 30.7574C41.9229 30.6902 41.8995 30.5527 41.812 30.3304C41.6751 29.9826 41.4415 29.5807 41.1424 29.1652C40.85 28.759 40.539 28.4004 40.2969 28.1405C40.1776 28.0125 40.0796 27.9132 40.0149 27.8494C39.9985 27.8331 39.9844 27.8192 39.9726 27.8079C39.9614 27.797 39.9524 27.7882 39.9457 27.782L39.9355 27.7722L39.9341 27.771L39.5804 27.4435ZM24.1785 42.9154C24.1785 42.9154 25.181 43.1736 26.6789 43.3541C31.1051 43.8876 39.8571 43.7427 39.8494 34.2512C39.8494 34.2512 43.9774 33.5982 44.3935 31.2384C44.8097 28.8786 41.6369 25.9405 41.6369 25.9405C40.5569 23.6375 40.5884 20.9245 40.618 18.3776C40.6262 17.6735 40.6342 16.982 40.6186 16.3155C40.5449 13.3599 39.605 10.4876 37.9117 8.04248C36.0577 5.71511 33.6274 3.89241 30.8522 2.7481C27.3307 1.14745 23.4952 0.321957 19.6144 0.329457C14.5324 0.33362 9.65998 2.31908 6.06935 5.84904C2.47862 9.37898 0.463692 14.1644 0.46778 19.1524C0.472692 25.1535 3.91451 32.2804 8.37685 35.7132L8.38548 46.3307C9.6531 48.9837 14.4281 50.862 17.2167 50.632C23.1396 50.6272 24.182 47.2069 24.182 47.2069L24.1785 42.9154Z" fill="#333333"/>
</svg>
