<svg width="130" height="163" viewBox="0 0 130 163" fill="none" xmlns="http://www.w3.org/2000/svg">
<path d="M130 61.3256C130 45.8393 117.386 33.2888 101.821 33.2888C92.1349 33.2888 83.591 38.1519 78.5184 45.5552C74.2577 44.5971 69.8178 44.0846 65.2659 44.0846C60.7141 44.0846 55.955 44.6305 51.5543 45.661C46.493 38.1965 37.9099 33.2888 28.1791 33.2888C12.6142 33.2888 0 45.8393 0 61.3256C0 69.6536 3.65606 77.1349 9.45088 82.2654C6.9034 88.8721 5.50368 96.0471 5.50368 103.545C5.50368 136.384 32.2606 163 65.2603 163C98.26 163 125.017 136.378 125.017 103.545C125.017 95.9134 123.567 88.6159 120.935 81.9089C126.501 76.7895 129.989 69.4642 129.989 61.3256H130Z" fill="#EEC1AA"/>
<path d="M114.933 14.4205C114.933 16.1562 113.689 17.9223 111.161 19.6184C108.651 21.3024 104.986 22.8385 100.413 24.1364C91.2735 26.7301 78.6182 28.341 64.619 28.341C50.6199 28.341 37.9646 26.7301 28.8249 24.1364C24.2516 22.8385 20.587 21.3024 18.0772 19.6184C15.5493 17.9223 14.3054 16.1562 14.3054 14.4205C14.3054 12.6848 15.5493 10.9187 18.0772 9.2226C20.587 7.53863 24.2516 6.00254 28.8249 4.70468C37.9646 2.1109 50.6199 0.5 64.619 0.5C78.6182 0.5 91.2735 2.1109 100.413 4.70468C104.986 6.00254 108.651 7.53863 111.161 9.2226C113.689 10.9187 114.933 12.6848 114.933 14.4205Z" fill="#EFEFEF" stroke="#EEEEEE"/>
<path d="M114.075 16.8091C114.075 18.5134 112.855 20.2493 110.37 21.9179C107.904 23.5744 104.302 25.0857 99.8065 26.3628C90.8221 28.9151 78.3813 30.5003 64.6191 30.5003C50.8569 30.5003 38.4161 28.9151 29.4317 26.3628C24.936 25.0857 21.3342 23.5744 18.8679 21.9179C16.3835 20.2493 15.1633 18.5134 15.1633 16.8091C15.1633 15.1048 16.3835 13.3689 18.8679 11.7003C21.3342 10.0438 24.936 8.53249 29.4317 7.25539C38.4161 4.70314 50.8569 3.11792 64.6191 3.11792C78.3813 3.11792 90.8221 4.70314 99.8065 7.25539C104.302 8.53249 107.904 10.0438 110.37 11.7003C112.855 13.3689 114.075 15.1048 114.075 16.8091Z" fill="#EFEFEF" stroke="#EEEEEE"/>
<path d="M113.217 19.192C113.217 20.864 112.021 22.569 109.58 24.2094C107.157 25.8377 103.618 27.3237 99.1997 28.5796C90.3706 31.0893 78.1443 32.6482 64.6189 32.6482C51.0936 32.6482 38.8673 31.0893 30.0382 28.5796C25.6202 27.3237 22.0812 25.8377 19.6583 24.2094C17.2173 22.569 16.021 20.864 16.021 19.192C16.021 17.52 17.2173 15.815 19.6583 14.1746C22.0812 12.5462 25.6202 11.0602 30.0382 9.80435C38.8673 7.29464 51.0936 5.73572 64.6189 5.73572C78.1443 5.73572 90.3706 7.29464 99.1997 9.80435C103.618 11.0602 107.157 12.5462 109.58 14.1746C112.021 15.815 113.217 17.52 113.217 19.192Z" fill="#EFEFEF" stroke="#EEEEEE"/>
<path d="M112.359 21.5804C112.359 23.221 111.186 24.8958 108.789 26.5087C106.41 28.1096 102.933 29.5708 98.5931 30.8059C89.9192 33.2741 77.9074 34.8073 64.619 34.8073C51.3306 34.8073 39.3188 33.2741 30.645 30.8059C26.3046 29.5708 22.8285 28.1096 20.449 26.5087C18.0516 24.8958 16.8789 23.221 16.8789 21.5804C16.8789 19.9398 18.0516 18.265 20.449 16.6521C22.8285 15.0513 26.3046 13.59 30.645 12.3549C39.3188 9.88676 51.3306 8.35352 64.619 8.35352C77.9074 8.35352 89.9192 9.88676 98.5931 12.3549C102.933 13.59 106.41 15.0513 108.789 16.6521C111.186 18.265 112.359 19.9398 112.359 21.5804Z" fill="#EFEFEF" stroke="#EEEEEE"/>
<path d="M111.496 23.9689C111.496 25.5781 110.347 27.2227 107.993 28.808C105.657 30.3814 102.244 31.8179 97.9823 33.0322C89.4647 35.4589 77.6688 36.9664 64.6189 36.9664C51.569 36.9664 39.7731 35.4589 31.2555 33.0322C26.9933 31.8179 23.5804 30.3814 21.2446 28.808C18.8911 27.2227 17.7422 25.5781 17.7422 23.9689C17.7422 22.3597 18.8911 20.715 21.2446 19.1297C23.5804 17.5564 26.9933 16.1198 31.2555 14.9055C39.7731 12.4789 51.569 10.9713 64.6189 10.9713C77.6688 10.9713 89.4647 12.4789 97.9823 14.9055C102.244 16.1198 105.657 17.5564 107.993 19.1297C110.347 20.715 111.496 22.3597 111.496 23.9689Z" fill="#EFEFEF" stroke="#EEEEEE"/>
<path d="M110.638 26.3575C110.638 27.9353 109.513 29.5498 107.203 31.1075C104.91 32.6534 101.56 34.0652 97.3756 35.2587C89.0134 37.6438 77.432 39.1257 64.619 39.1257C51.806 39.1257 40.2246 37.6438 31.8623 35.2587C27.6778 34.0652 24.3277 32.6534 22.0353 31.1075C19.7253 29.5498 18.6001 27.9353 18.6001 26.3575C18.6001 24.7797 19.7253 23.1652 22.0353 21.6074C24.3277 20.0616 27.6778 18.6498 31.8623 17.4562C40.2246 15.0711 51.806 13.5892 64.619 13.5892C77.432 13.5892 89.0134 15.0711 97.3756 17.4562C101.56 18.6498 104.91 20.0616 107.203 21.6074C109.513 23.1652 110.638 24.7797 110.638 26.3575Z" fill="#EFEFEF" stroke="#EEEEEE"/>
<path d="M109.78 28.7459C109.78 30.2923 108.679 31.8767 106.412 33.4068C104.163 34.9252 100.876 36.3123 96.769 37.485C88.562 39.8286 77.1951 41.2848 64.619 41.2848C52.043 41.2848 40.6761 39.8286 32.4691 37.485C28.3622 36.3123 25.075 34.9252 22.8261 33.4068C20.5596 31.8767 19.458 30.2923 19.458 28.7459C19.458 27.1995 20.5596 25.6152 22.8261 24.085C25.075 22.5666 28.3622 21.1796 32.4691 20.0068C40.6761 17.6632 52.043 16.207 64.619 16.207C77.1951 16.207 88.562 17.6632 96.769 20.0068C100.876 21.1796 104.163 22.5666 106.412 24.085C108.679 25.6152 109.78 27.1995 109.78 28.7459Z" fill="#EFEFEF" stroke="#EEEEEE"/>
<path d="M108.922 31.1289C108.922 32.6431 107.844 34.1965 105.621 35.6985C103.416 37.1887 100.191 38.5504 96.1622 39.7019C88.1104 42.0029 76.9581 43.4328 64.6189 43.4328C52.2797 43.4328 41.1273 42.0029 33.0756 39.7019C29.0464 38.5504 25.822 37.1887 23.6165 35.6985C21.3935 34.1965 20.3157 32.6431 20.3157 31.1289C20.3157 29.6147 21.3935 28.0613 23.6165 26.5593C25.822 25.0691 29.0464 23.7074 33.0756 22.5559C41.1273 20.2549 52.2797 18.825 64.6189 18.825C76.9581 18.825 88.1104 20.2549 96.1622 22.5559C100.191 23.7074 103.416 25.0691 105.621 26.5593C107.844 28.0613 108.922 29.6147 108.922 31.1289Z" fill="#EFEFEF" stroke="#EEEEEE"/>
<path d="M108.059 33.5174C108.059 35.0002 107.005 36.5234 104.826 37.9978C102.664 39.4606 99.5026 40.7975 95.5515 41.9282C87.6561 44.1877 76.7197 45.592 64.619 45.592C52.5183 45.592 41.5818 44.1877 33.6864 41.9282C29.7353 40.7975 26.5742 39.4606 24.4124 37.9978C22.2333 36.5234 21.1792 35.0002 21.1792 33.5174C21.1792 32.0345 22.2333 30.5113 24.4124 29.0369C26.5742 27.5742 29.7353 26.2372 33.6864 25.1065C41.5818 22.847 52.5183 21.4427 64.619 21.4427C76.7197 21.4427 87.6561 22.847 95.5515 25.1065C99.5026 26.2372 102.664 27.5742 104.826 29.0369C107.005 30.5113 108.059 32.0345 108.059 33.5174Z" fill="#EFEFEF" stroke="#EEEEEE"/>
<path d="M107.201 35.9058C107.201 37.3573 106.171 38.8504 104.035 40.2972C101.917 41.7324 98.8183 43.0446 94.9449 44.1546C87.2048 46.3725 76.4828 47.7511 64.6191 47.7511C52.7553 47.7511 42.0333 46.3725 34.2933 44.1546C30.4198 43.0446 27.3216 41.7324 25.2031 40.2972C23.0676 38.8504 22.0371 37.3573 22.0371 35.9058C22.0371 34.4543 23.0676 32.9613 25.2031 31.5144C27.3216 30.0792 30.4198 28.767 34.2933 27.657C42.0333 25.4391 52.7553 24.0605 64.6191 24.0605C76.4828 24.0605 87.2048 25.4391 94.9449 27.657C98.8183 28.767 101.917 30.0792 104.035 31.5144C106.171 32.9613 107.201 34.4543 107.201 35.9058Z" fill="#EFEFEF" stroke="#EEEEEE"/>
<path d="M106.343 38.2944C106.343 39.7145 105.336 41.1774 103.244 42.5967C101.169 44.0044 98.1337 45.2919 94.338 46.381C86.7532 48.5574 76.2457 49.9103 64.6189 49.9103C52.9921 49.9103 42.4846 48.5574 34.8998 46.381C31.1041 45.2919 28.0687 44.0044 25.9937 42.5967C23.9016 41.1774 22.8948 39.7145 22.8948 38.2944C22.8948 36.8743 23.9016 35.4113 25.9937 33.9921C28.0687 32.5844 31.1041 31.2969 34.8998 30.2077C42.4846 28.0313 52.9921 26.6785 64.6189 26.6785C76.2457 26.6785 86.7532 28.0313 94.338 30.2077C98.1337 31.2969 101.169 32.5844 103.244 33.9921C105.336 35.4113 106.343 36.8743 106.343 38.2944Z" fill="#EFEFEF" stroke="#EEEEEE"/>
<path d="M105.48 40.6773C105.48 42.0661 104.497 43.4989 102.448 44.8905C100.417 46.2707 97.4449 47.5334 93.7273 48.6018C86.2988 50.7367 76.0073 52.0639 64.619 52.0639C53.2306 52.0639 42.9391 50.7367 35.5107 48.6018C31.7931 47.5334 28.8209 46.2707 26.7896 44.8905C24.7415 43.4989 23.7583 42.0661 23.7583 40.6773C23.7583 39.2885 24.7415 37.8557 26.7896 36.4641C28.8209 35.0839 31.7931 33.8212 35.5107 32.7528C42.9391 30.6179 53.2306 29.2907 64.619 29.2907C76.0073 29.2907 86.2988 30.6179 93.7273 32.7528C97.4449 33.8212 100.417 35.0839 102.448 36.4641C104.497 37.8557 105.48 39.2885 105.48 40.6773Z" fill="#EFEFEF" stroke="#EEEEEE"/>
<path d="M104.622 43.0658C104.622 44.4224 103.662 45.8242 101.658 47.1877C99.6697 48.5397 96.7604 49.7771 93.1205 50.8242C85.8473 52.9165 75.7703 54.2174 64.6188 54.2174C53.4674 54.2174 43.3904 52.9165 36.1172 50.8242C32.4772 49.7771 29.5679 48.5397 27.5801 47.1877C25.5754 45.8242 24.616 44.4224 24.616 43.0658C24.616 41.7092 25.5754 40.3073 27.5801 38.9439C29.5679 37.5918 32.4772 36.3545 36.1172 35.3073C43.3904 33.215 53.4674 31.9141 64.6188 31.9141C75.7703 31.9141 85.8473 33.215 93.1205 35.3073C96.7604 36.3545 99.6697 37.5918 101.658 38.9439C103.662 40.3073 104.622 41.7092 104.622 43.0658Z" fill="#EFEFEF" stroke="#EEEEEE"/>
<path d="M103.764 45.4543C103.764 46.7796 102.828 48.1513 100.867 49.4871C98.9225 50.8116 96.0761 52.0243 92.5138 53.0506C85.3959 55.1014 75.5334 56.3766 64.6189 56.3766C53.7044 56.3766 43.8419 55.1014 36.7241 53.0506C33.1618 52.0243 30.3153 50.8116 28.3709 49.4871C26.4098 48.1513 25.4739 46.7796 25.4739 45.4543C25.4739 44.129 26.4098 42.7573 28.3709 41.4215C30.3153 40.0969 33.1618 38.8843 36.7241 37.858C43.8419 35.8072 53.7044 34.532 64.6189 34.532C75.5334 34.532 85.3959 35.8072 92.5138 37.858C96.0761 38.8843 98.9225 40.0969 100.867 41.4215C102.828 42.7573 103.764 44.129 103.764 45.4543Z" fill="#EFEFEF" stroke="#EEEEEE"/>
<path d="M102.906 47.8428C102.906 49.1368 101.994 50.4783 100.076 51.7866C98.1753 53.0836 95.3917 54.2715 91.9071 55.277C84.9445 57.2862 75.2966 58.5358 64.619 58.5358C53.9414 58.5358 44.2935 57.2862 37.3309 55.277C33.8463 54.2715 31.0627 53.0836 29.1617 51.7866C27.2442 50.4783 26.3318 49.1368 26.3318 47.8428C26.3318 46.5488 27.2442 45.2073 29.1617 43.899C31.0627 42.602 33.8463 41.4142 37.3309 40.4086C44.2935 38.3994 53.9414 37.1498 64.619 37.1498C75.2966 37.1498 84.9445 38.3994 91.9071 40.4086C95.3917 41.4142 98.1753 42.602 100.076 43.899C101.994 45.2073 102.906 46.5488 102.906 47.8428Z" fill="#EFEFEF" stroke="#EEEEEE"/>
<path d="M102.043 50.2313C102.043 51.494 101.154 52.8054 99.2805 54.086C97.4232 55.3555 94.7029 56.5186 91.2964 57.5034C84.4902 59.471 75.0582 60.6949 64.6191 60.6949C54.18 60.6949 44.748 59.471 37.9418 57.5034C34.5353 56.5186 31.815 55.3555 29.9577 54.086C28.0841 52.8054 27.1953 51.494 27.1953 50.2313C27.1953 48.9685 28.0841 47.6571 29.9577 46.3765C31.815 45.1071 34.5353 43.9439 37.9418 42.9591C44.748 40.9915 54.18 39.7676 64.6191 39.7676C75.0582 39.7676 84.4902 40.9915 91.2964 42.9591C94.7029 43.9439 97.4232 45.1071 99.2805 46.3765C101.154 47.6571 102.043 48.9685 102.043 50.2313Z" fill="#EFEFEF" stroke="#EEEEEE"/>
<path d="M101.185 52.6142C101.185 53.8457 100.32 55.1269 98.4896 56.3799C96.6757 57.6219 94.0182 58.7602 90.6894 59.7242C84.0385 61.6503 74.821 62.8485 64.6189 62.8485C54.4168 62.8485 45.1993 61.6503 38.5484 59.7242C35.2196 58.7602 32.5622 57.6219 30.7483 56.3799C28.9183 55.1269 28.053 53.8457 28.053 52.6142C28.053 51.3827 28.9183 50.1015 30.7483 48.8485C32.5622 47.6066 35.2196 46.4682 38.5484 45.5042C45.1993 43.5781 54.4168 42.3799 64.6189 42.3799C74.821 42.3799 84.0385 43.5781 90.6894 45.5042C94.0182 46.4682 96.6757 47.6066 98.4896 48.8485C100.32 50.1015 101.185 51.3827 101.185 52.6142Z" fill="#EFEFEF" stroke="#EEEEEE"/>
<path d="M100.327 55.0027C100.327 56.2021 99.4855 57.4524 97.699 58.6771C95.9286 59.8909 93.3339 61.0039 90.0828 61.9466C83.5872 63.8302 74.5842 65.0021 64.619 65.0021C54.6538 65.0021 45.6509 63.8302 39.1553 61.9466C35.9041 61.0039 33.3095 59.8909 31.539 58.6771C29.7526 57.4524 28.9109 56.2021 28.9109 55.0027C28.9109 53.8033 29.7526 52.553 31.539 51.3283C33.3095 50.1145 35.9041 49.0015 39.1553 48.0588C45.6509 46.1752 54.6538 45.0034 64.619 45.0034C74.5842 45.0034 83.5872 46.1752 90.0828 48.0588C93.3339 49.0015 95.9286 50.1145 97.699 51.3283C99.4855 52.553 100.327 53.8033 100.327 55.0027Z" fill="#EFEFEF" stroke="#EEEEEE"/>
<path d="M71.9629 31.4141V31.9141H72.4629H86.9104V44.669H72.4629H71.9629V45.169V60.5327H57.2754V45.169V44.669H56.7754H42.3223V31.9141H56.7754H57.2754V31.4141V16.0504H71.9629V31.4141Z" fill="#C1272D" stroke="#EEEEEE"/>
</svg>
