<svg width="30" height="46" viewBox="0 0 30 46" fill="none" xmlns="http://www.w3.org/2000/svg">
<path d="M23.3653 4.59988C23.3653 7.14028 21.2991 9.19976 18.75 9.19976C16.2011 9.19976 14.1348 7.14028 14.1348 4.59988C14.1348 2.05944 16.2011 0 18.75 0C21.2991 0 23.3653 2.05944 23.3653 4.59988Z" fill="#333333"/>
<path d="M16.9534 28.056L22.9451 33.9483C23.1748 34.1743 23.3544 34.4458 23.4724 34.7453L26.6676 42.859C27.1332 44.0414 26.5489 45.3762 25.3625 45.8402C24.1762 46.3043 22.8371 45.722 22.3714 44.5396L19.3551 36.88L9.05283 26.7485C8.54884 26.2529 8.301 25.554 8.38061 24.8528L9.20583 17.5857C7.21676 19.5552 5.6824 22.3263 4.50655 25.9978C4.11909 27.2078 2.8207 27.8757 1.60653 27.4894C0.392368 27.1031 -0.277656 25.8091 0.109912 24.5991C2.26779 17.8608 5.85052 12.8173 11.8615 10.5044L11.8888 10.494C13.4196 9.92708 15.0123 9.97273 16.4307 10.7037C17.7941 11.4061 18.7644 12.6192 19.3998 13.9788C19.6673 14.5512 19.9148 15.0862 20.147 15.5884C20.7099 16.8048 21.184 17.8297 21.6387 18.7303C22.2777 19.9958 22.7911 20.8334 23.2986 21.4226C23.769 21.9688 24.2371 22.3043 24.8336 22.5364C25.4748 22.786 26.3736 22.958 27.7615 22.9995C29.0354 23.0375 30.0371 24.0977 29.9989 25.3674C29.9606 26.637 28.897 27.6354 27.6231 27.5973C25.956 27.5475 24.4755 27.3352 23.1546 26.8212C21.789 26.2897 20.7123 25.4819 19.7966 24.4188C19.2191 23.7482 18.7127 22.9836 18.2381 22.1513L16.9534 28.056Z" fill="#333333"/>
<path d="M8.38081 30.1523L12.2058 33.8088L10.4458 39.7284C10.3095 40.1864 10.0337 40.5909 9.65624 40.8854L3.73183 45.511C2.72859 46.2942 1.27812 46.1186 0.492138 45.1187C-0.293845 44.1188 -0.117657 42.6732 0.885706 41.8899L6.23009 37.7172L7.84047 32.3008L8.38081 30.1523Z" fill="#333333"/>
</svg>
