<svg width="30" height="46" viewBox="0 0 30 46" fill="none" xmlns="http://www.w3.org/2000/svg">
<path d="M23.3656 4.59988C23.3656 7.14028 21.2993 9.19976 18.7503 9.19976C16.2014 9.19976 14.135 7.14028 14.135 4.59988C14.135 2.05944 16.2014 0 18.7503 0C21.2993 0 23.3656 2.05944 23.3656 4.59988Z" fill="#333333"/>
<path d="M16.9534 28.0558L22.9451 33.9481C23.1748 34.1741 23.3544 34.4456 23.4724 34.745L26.6676 42.8587C27.1332 44.0411 26.5489 45.3759 25.3625 45.8399C24.1762 46.3041 22.8371 45.7217 22.3714 44.5393L19.3551 36.8797L9.05283 26.7482C8.54884 26.2526 8.301 25.5538 8.38061 24.8525L9.20583 17.5854C7.21676 19.5549 5.6824 22.326 4.50655 25.9975C4.11909 27.2075 2.8207 27.8754 1.60653 27.4892C0.392368 27.1029 -0.277656 25.8088 0.109912 24.5988C2.26779 17.8606 5.85052 12.817 11.8615 10.5041L11.8888 10.4938C13.4196 9.92682 15.0123 9.97247 16.4307 10.7034C17.7941 11.4058 18.7644 12.6189 19.3998 13.9785C19.6673 14.551 19.9148 15.0859 20.147 15.5881C20.7099 16.8046 21.184 17.8294 21.6387 18.7301C22.2777 19.9955 22.7911 20.8331 23.2986 21.4224C23.769 21.9685 24.2371 22.3041 24.8336 22.5361C25.4748 22.7858 26.3736 22.9577 27.7615 22.9992C29.0354 23.0373 30.0371 24.0974 29.9989 25.3671C29.9606 26.6367 28.897 27.6351 27.6231 27.597C25.956 27.5472 24.4755 27.335 23.1546 26.8209C21.789 26.2894 20.7123 25.4817 19.7966 24.4185C19.2191 23.748 18.7127 22.9834 18.2381 22.151L16.9534 28.0558Z" fill="#333333"/>
<path d="M8.38032 30.1519L12.2054 33.8083L10.4453 39.7279C10.309 40.186 10.0332 40.5904 9.65575 40.8849L3.73135 45.5106C2.7281 46.2938 1.27763 46.1182 0.491649 45.1183C-0.294333 44.1184 -0.118145 42.6728 0.885217 41.8894L6.2296 37.7167L7.83999 32.3004L8.38032 30.1519Z" fill="#333333"/>
</svg>
