<svg width="29" height="45" viewBox="0 0 29 45" fill="none" xmlns="http://www.w3.org/2000/svg">
<path d="M22.5868 4.49988C22.5868 6.98506 20.5894 8.99977 18.1253 8.99977C15.6614 8.99977 13.6639 6.98506 13.6639 4.49988C13.6639 2.01467 15.6614 0 18.1253 0C20.5894 0 22.5868 2.01467 22.5868 4.49988Z" fill="#333333"/>
<path d="M16.3883 27.4459L22.1802 33.2101C22.4023 33.4312 22.576 33.6968 22.6899 33.9897L25.7787 41.927C26.2288 43.0837 25.6639 44.3895 24.5171 44.8434C23.3703 45.2975 22.0758 44.7278 21.6257 43.5711L18.7099 36.078L8.75107 26.1668C8.26388 25.6819 8.0243 24.9983 8.10126 24.3123L8.89897 17.2031C6.9762 19.1298 5.49299 21.8407 4.35633 25.4324C3.98179 26.6161 2.72668 27.2695 1.55298 26.8916C0.379289 26.5137 -0.268401 25.2478 0.106249 24.0641C2.19219 17.4723 5.6555 12.5384 11.4661 10.2758L11.4925 10.2656C12.9723 9.71103 14.5119 9.75569 15.883 10.4707C17.2009 11.1579 18.1389 12.3446 18.7532 13.6746C19.0117 14.2346 19.251 14.758 19.4755 15.2493C20.0196 16.4393 20.4779 17.4418 20.9174 18.3229C21.5351 19.5608 22.0314 20.3803 22.522 20.9567C22.9767 21.4909 23.4292 21.8192 24.0058 22.0462C24.6257 22.2905 25.4945 22.4586 26.8361 22.4992C28.0675 22.5365 29.0359 23.5736 28.999 24.8157C28.962 26.0576 27.9338 27.0343 26.7023 26.9971C25.0908 26.9484 23.6596 26.7407 22.3828 26.2379C21.0627 25.7179 20.0219 24.9277 19.1367 23.8877C18.5785 23.2317 18.089 22.4837 17.6301 21.6695L16.3883 27.4459Z" fill="#333333"/>
<path d="M8.10099 29.4964L11.7985 33.0734L10.0972 38.8643C9.96543 39.3123 9.69875 39.708 9.33391 39.9961L3.60698 44.5212C2.63718 45.2874 1.23506 45.1156 0.475277 44.1374C-0.284506 43.1593 -0.114191 41.7451 0.855726 40.9788L6.02196 36.8968L7.57867 31.5982L8.10099 29.4964Z" fill="#333333"/>
</svg>
