<svg width="71" height="106" viewBox="0 0 71 106" fill="none" xmlns="http://www.w3.org/2000/svg">
<path d="M69.6833 33.6451C69.2034 30.7973 64.9336 27.5272 61.3984 28.8955C54.411 31.5997 47.6823 46.6025 44.1589 45.0381C36.3657 41.6103 32.3842 41.4163 31.614 41.4163C31.614 41.4163 31.5923 41.4143 31.5528 41.4163C31.4994 41.4163 31.4718 41.4183 31.4718 41.4183V41.4224C30.6877 41.481 26.5601 41.9357 18.123 45.3939C14.26 46.9764 7.05532 53.5066 2.18901 66.7571C-3.76155 82.9604 14.5582 70.7326 14.5582 70.7326L13.075 98.3007C13.075 98.3007 7.63004 105.354 17.2106 105.009C22.5884 104.728 28.1025 102.325 28.1025 102.325C28.1025 102.325 27.512 88.2436 31.533 87.3119C35.5777 88.1991 34.9852 102.329 34.9852 102.329C34.9852 102.329 40.4993 104.732 45.8772 105.013C55.4577 105.358 50.0127 98.3047 50.0127 98.3047L49.0154 79.7771L47.6823 58.6342C48.3735 58.7272 53.2161 54.7274 58.1634 49.7858C64.4892 43.7244 70.3469 36.5636 69.6833 33.6451Z" fill="#EEC1AA" stroke="#EEC1AA" stroke-miterlimit="10"/>
<path d="M40.8647 59.7375C44.3702 68.4647 41.2893 81.8203 30.8733 81.8203C20.4574 81.8203 17.3784 68.4668 20.882 59.7375C22.9419 54.6079 27.1189 51.7804 30.8733 51.7804C34.6277 51.7804 38.8048 54.6079 40.8647 59.7375Z" fill="#C98475"/>
<path d="M54.5905 11.1723C54.5905 5.55358 50.1409 1 44.6506 1C41.2339 1 38.2201 2.76444 36.4308 5.4505C34.9278 5.10287 33.3617 4.91693 31.756 4.91693C30.1504 4.91693 28.4717 5.115 26.9193 5.48891C25.134 2.78061 22.1064 1 18.6739 1C13.1835 1 8.73389 5.55358 8.73389 11.1723C8.73389 14.1939 10.0235 16.9082 12.0676 18.7697C11.169 21.1667 10.6753 23.7699 10.6753 26.4904C10.6753 38.4049 20.1136 48.0618 31.754 48.0618C43.3945 48.0618 52.8328 38.4028 52.8328 26.4904C52.8328 23.7214 52.3213 21.0738 51.3931 18.6403C53.3562 16.7829 54.5866 14.1251 54.5866 11.1723H54.5905Z" fill="#EEC1AA" stroke="#EEC1AA" stroke-miterlimit="10"/>
<path d="M38.2143 27.9436C39.0833 30.0738 36.1603 32.2667 31.4165 32.1717C26.6766 32.0768 24.0301 29.7747 25.1499 27.6869C26.009 26.0862 28.928 25.0857 31.8391 25.1423C34.7502 25.1989 37.5487 26.3125 38.2143 27.9456V27.9436Z" fill="#C98475"/>
<path d="M23.5305 24.0004C25.123 24.0004 26.414 22.6792 26.414 21.0495C26.414 19.4198 25.123 18.0987 23.5305 18.0987C21.9381 18.0987 20.6471 19.4198 20.6471 21.0495C20.6471 22.6792 21.9381 24.0004 23.5305 24.0004Z" fill="black"/>
<path d="M39.1662 24.0004C40.7586 24.0004 42.0496 22.6792 42.0496 21.0495C42.0496 19.4198 40.7586 18.0987 39.1662 18.0987C37.5737 18.0987 36.2827 19.4198 36.2827 21.0495C36.2827 22.6792 37.5737 24.0004 39.1662 24.0004Z" fill="black"/>
<path d="M24.9938 20.031C25.6471 20.031 26.1768 19.8183 26.1768 19.556C26.1768 19.2937 25.6471 19.0811 24.9938 19.0811C24.3404 19.0811 23.8108 19.2937 23.8108 19.556C23.8108 19.8183 24.3404 20.031 24.9938 20.031Z" fill="white"/>
<path d="M40.8667 20.0289C41.5201 20.0289 42.0497 19.8443 42.0497 19.6166C42.0497 19.3889 41.5201 19.2043 40.8667 19.2043C40.2134 19.2043 39.6837 19.3889 39.6837 19.6166C39.6837 19.8443 40.2134 20.0289 40.8667 20.0289Z" fill="white"/>
<path d="M40.5468 35.5448C37.6575 37.3254 32.1947 37.5356 31.6081 33.1598C31.539 32.6384 31.5667 32.121 31.6496 31.6198C31.6871 31.743 31.7148 31.8663 31.7484 31.9876C31.8846 32.5737 32.092 33.1497 32.3685 33.6772C33.9386 36.5311 37.8352 35.8095 40.5468 35.5448Z" fill="#C98475"/>
<path d="M22.7504 35.2379C25.2684 35.4582 29.2677 36.1999 30.8418 33.7099C31.298 32.9823 31.4757 32.1718 31.6476 31.3149C31.7542 31.8141 31.8095 32.3376 31.7582 32.8651C31.3039 37.3156 25.6081 36.9619 22.7523 35.2379H22.7504Z" fill="#C98475"/>
</svg>
