<svg width="60" height="60" viewBox="0 0 60 60" fill="none" xmlns="http://www.w3.org/2000/svg">
<path d="M38.6438 8.0043C38.9223 7.37262 38.636 6.63476 38.0044 6.35625C37.3726 6.07774 36.6348 6.36404 36.3563 6.99571L36.3515 7.00652L36.3351 7.04335C36.3204 7.07641 36.298 7.12636 36.2683 7.19226C36.2088 7.32406 36.1196 7.51966 36.0028 7.77167C35.7691 8.27576 35.4246 9.0052 34.9838 9.90107C34.1015 11.6939 32.8359 14.1477 31.3026 16.7932C28.2031 22.1412 24.126 28.0637 20.0114 31.03C14.5809 34.9276 12.9494 39.7199 14.0926 43.7319C15.2129 47.6631 18.9238 50.4657 23.3046 50.4657H27.3408C29.1546 50.4657 30.625 51.9361 30.625 53.75H33.125C33.125 50.5554 30.5353 47.9657 27.3408 47.9657H26.6211C26.9019 47.5459 27.3494 47.1347 28.0284 46.8181C29.2715 46.2384 31.3786 45.9437 34.7174 46.7186C35.3899 46.8747 36.0616 46.4561 36.2176 45.7836C36.3738 45.1111 35.9551 44.4394 35.2826 44.2834C31.6215 43.4336 28.8953 43.6555 26.9718 44.5524C25.2745 45.3439 24.2771 46.6325 23.8945 47.9657H23.3046C19.9961 47.9657 17.2991 45.8616 16.497 43.0467C15.7179 40.3127 16.6493 36.5199 21.4703 33.0601L21.4724 33.0586C26.0598 29.752 30.3616 23.4027 33.4656 18.0469C35.0343 15.3402 36.3266 12.8341 37.2269 11.005C37.6771 10.0898 38.03 9.34275 38.271 8.8231C38.3914 8.56323 38.4839 8.36014 38.5466 8.22122C38.578 8.15177 38.602 8.09835 38.6183 8.06189L38.6369 8.02002L38.6431 8.00575L38.6438 8.0043C38.6438 8.0043 38.6438 8.0043 37.5 7.50001L38.6438 8.0043Z" fill="#333333"/>
<path d="M44.6946 43.7387C44.0459 46.3519 42.424 48.7122 40.6611 49.8109L39.3389 47.6891C40.4414 47.0021 41.7422 45.2554 42.2684 43.1364C42.7795 41.0772 42.5126 38.8762 40.8187 37.117L42.6197 35.383C45.0521 37.9095 45.3582 41.0657 44.6946 43.7387Z" fill="#333333"/>
</svg>
