<svg width="60" height="60" viewBox="0 0 60 60" fill="none" xmlns="http://www.w3.org/2000/svg">
<path d="M38.644 8.0046C38.9225 7.37293 38.6362 6.63507 38.0046 6.35655C37.3728 6.07804 36.635 6.36434 36.3565 6.99602L36.3517 7.00683L36.3353 7.04365C36.3206 7.07671 36.2982 7.12667 36.2685 7.19257C36.209 7.32437 36.1198 7.51997 36.003 7.77198C35.7693 8.27607 35.4248 9.0055 34.984 9.90138C34.1017 11.6942 32.8361 14.1481 31.3028 16.7936C28.2033 22.1416 24.1262 28.0641 20.0116 31.0303C14.5811 34.9279 12.9496 39.7202 14.0928 43.7322C15.2131 47.6634 18.924 50.466 23.3048 50.466H27.341C29.1548 50.466 30.6252 51.9364 30.6252 53.7503H33.1252C33.1252 50.5557 30.5355 47.966 27.341 47.966H26.6213C26.9021 47.5462 27.3496 47.135 28.0286 46.8184C29.2717 46.2387 31.3788 45.944 34.7176 46.7189C35.3901 46.875 36.0618 46.4564 36.2178 45.7839C36.374 45.1114 35.9553 44.4397 35.2828 44.2837C31.6217 43.4339 28.8955 43.6558 26.972 44.5527C25.2747 45.3442 24.2773 46.6328 23.8947 47.966H23.3048C19.9963 47.966 17.2993 45.8619 16.4972 43.0471C15.7181 40.3131 16.6495 36.5202 21.4705 33.0604L21.4726 33.0589C26.06 29.7523 30.3618 23.4031 33.4658 18.0472C35.0345 15.3406 36.3268 12.8344 37.2271 11.0053C37.6773 10.0901 38.0302 9.34305 38.2712 8.8234C38.3916 8.56354 38.4841 8.36044 38.5468 8.22153C38.5782 8.15208 38.6022 8.09865 38.6185 8.06219L38.6371 8.02033L38.6433 8.00605L38.644 8.0046C38.644 8.0046 38.644 8.0046 37.5002 7.50032L38.644 8.0046Z" fill="#333333"/>
<path d="M44.6946 43.7386C44.0459 46.3517 42.424 48.7121 40.6611 49.8107L39.3389 47.6889C40.4414 47.0019 41.7422 45.2552 42.2684 43.1362C42.7795 41.0771 42.5126 38.8761 40.8187 37.1168L42.6197 35.3828C45.0521 37.9093 45.3582 41.0656 44.6946 43.7386Z" fill="#333333"/>
</svg>
