<svg width="46" height="46" viewBox="0 0 46 46" fill="none" xmlns="http://www.w3.org/2000/svg">
<circle cx="23" cy="23" r="22" fill="#D9D9D9" stroke="black" stroke-width="2"/>
<path d="M22.5 19C25.0543 19 27.125 21.0147 27.125 23.5C27.125 25.9853 25.0543 28 22.5 28C19.9457 28 17.875 25.9853 17.875 23.5C17.875 21.0147 19.9457 19 22.5 19Z" fill="#14212F"/>
<path d="M8.625 19C11.1793 19 13.25 21.0147 13.25 23.5C13.25 25.9853 11.1793 28 8.625 28C6.07068 28 4 25.9853 4 23.5C4 21.0147 6.07068 19 8.625 19Z" fill="#14212F"/>
<path d="M36.375 19C38.9293 19 41 21.0147 41 23.5C41 25.9853 38.9293 28 36.375 28C33.8207 28 31.75 25.9853 31.75 23.5C31.75 21.0147 33.8207 19 36.375 19Z" fill="#14212F"/>
</svg>
