<svg width="37" height="37" viewBox="0 0 37 37" fill="none" xmlns="http://www.w3.org/2000/svg">
<path d="M36 25.0625V5.375C36 2.95875 34.2594 1 32.1117 1H24.3333C20.4444 1 18.5 3.1875 18.5 7.5625M36 25.0625C36 27.4787 34.2594 29.4375 32.1117 29.4375H24.3333C20.4444 29.4375 18.5 31.625 18.5 36M36 25.0625V31.625C36 34.0412 34.2589 36 32.1111 36H18.5M1 25.0625V5.375C1 2.95875 2.74057 1 4.88834 1H12.6667C16.5556 1 18.5 3.1875 18.5 7.5625M1 25.0625C1 27.4787 2.74057 29.4375 4.88834 29.4375H12.6667C16.5556 29.4375 18.5 31.625 18.5 36M1 25.0625V31.625C1 34.0412 2.74111 36 4.88889 36H18.5M18.5 7.5625V36" stroke="black" stroke-width="2" stroke-linecap="round" stroke-linejoin="round"/>
</svg>
