<svg width="94" height="83" viewBox="0 0 94 83" fill="none" xmlns="http://www.w3.org/2000/svg">
<path d="M54.0187 26.3428C53.6483 24.1321 50.3522 21.5934 47.6233 22.6556C42.2295 24.755 37.0354 36.4019 34.3157 35.1874C28.2999 32.5264 25.2264 32.3757 24.6318 32.3757C24.6318 32.3757 24.6151 32.3742 24.5846 32.3757C24.5434 32.3757 24.5221 32.3773 24.5221 32.3773V32.3804C23.9168 32.4259 20.7306 32.779 14.2178 35.4636C11.2358 36.6921 5.67428 41.7616 1.91783 52.0482C-2.67558 64.627 11.466 55.1344 11.466 55.1344L10.3211 76.5359C10.3211 76.5359 6.11792 82.0118 13.5134 81.7435C17.6647 81.5254 21.9212 79.6599 21.9212 79.6599C21.9212 79.6599 21.4654 68.7285 24.5693 68.0051C27.6916 68.694 27.2342 79.663 27.2342 79.663C27.2342 79.663 31.4907 81.5286 35.642 81.7467C43.0375 82.015 38.8344 76.5391 38.8344 76.5391L38.0645 62.1558L37.0354 45.7423C37.569 45.8144 41.3072 42.7093 45.1261 38.8731C50.0092 34.1676 54.531 28.6085 54.0187 26.3428Z" fill="#EEC1AA" stroke="#EEC1AA" stroke-miterlimit="10"/>
<path d="M31.7729 46.5988C34.479 53.3738 32.1007 63.7419 24.0603 63.7419C16.0199 63.7419 13.6432 53.3754 16.3477 46.5988C17.9378 42.6166 21.1622 40.4215 24.0603 40.4215C26.9584 40.4215 30.1828 42.6166 31.7729 46.5988Z" fill="#C98475"/>
<path d="M42.3681 8.8969C42.3681 4.53501 38.9333 1 34.6951 1C32.0577 1 29.7312 2.36976 28.35 4.45499C27.1898 4.18512 25.9809 4.04077 24.7414 4.04077C23.502 4.04077 22.2062 4.19453 21.0079 4.4848C19.6297 2.38231 17.2926 1 14.6429 1C10.4047 1 6.96997 4.53501 6.96997 8.8969C6.96997 11.2426 7.96549 13.3498 9.54338 14.7949C8.84972 16.6557 8.46859 18.6766 8.46859 20.7885C8.46859 30.0379 15.7543 37.5347 24.7399 37.5347C33.7255 37.5347 41.0113 30.0364 41.0113 20.7885C41.0113 18.639 40.6164 16.5836 39.8999 14.6944C41.4153 13.2525 42.365 11.1892 42.365 8.8969H42.3681Z" fill="#EEC1AA" stroke="#EEC1AA" stroke-miterlimit="10"/>
<path d="M29.727 21.9168C30.3977 23.5705 28.1414 25.2729 24.4795 25.1992C20.8206 25.1255 18.7778 23.3383 19.6422 21.7175C20.3053 20.4749 22.5586 19.6982 24.8058 19.7421C27.0529 19.7861 29.2132 20.6506 29.727 21.9184V21.9168Z" fill="#C98475"/>
<path d="M18.392 18.8555C19.6212 18.8555 20.6178 17.8299 20.6178 16.5648C20.6178 15.2996 19.6212 14.274 18.392 14.274C17.1627 14.274 16.1661 15.2996 16.1661 16.5648C16.1661 17.8299 17.1627 18.8555 18.392 18.8555Z" fill="black"/>
<path d="M30.4617 18.8555C31.6909 18.8555 32.6875 17.8299 32.6875 16.5648C32.6875 15.2996 31.6909 14.274 30.4617 14.274C29.2324 14.274 28.2358 15.2996 28.2358 16.5648C28.2358 17.8299 29.2324 18.8555 30.4617 18.8555Z" fill="black"/>
<path d="M19.5217 15.7741C20.0261 15.7741 20.4349 15.609 20.4349 15.4053C20.4349 15.2017 20.0261 15.0366 19.5217 15.0366C19.0174 15.0366 18.6085 15.2017 18.6085 15.4053C18.6085 15.609 19.0174 15.7741 19.5217 15.7741Z" fill="white"/>
<path d="M31.7742 15.7724C32.2785 15.7724 32.6874 15.6291 32.6874 15.4523C32.6874 15.2756 32.2785 15.1323 31.7742 15.1323C31.2698 15.1323 30.861 15.2756 30.861 15.4523C30.861 15.6291 31.2698 15.7724 31.7742 15.7724Z" fill="white"/>
<path d="M31.5272 27.8174C29.2968 29.1997 25.08 29.3629 24.6272 25.966C24.5738 25.5612 24.5952 25.1595 24.6592 24.7704C24.6881 24.8661 24.7095 24.9618 24.7354 25.0559C24.8406 25.511 25.0007 25.9581 25.2141 26.3677C26.4261 28.5831 29.434 28.023 31.5272 27.8174Z" fill="#C98475"/>
<path d="M17.7898 27.5794C19.7336 27.7504 22.8208 28.3262 24.0358 26.3932C24.388 25.8283 24.5252 25.1991 24.6578 24.5339C24.7401 24.9214 24.7828 25.3278 24.7432 25.7373C24.3925 29.1923 19.9958 28.9177 17.7913 27.5794H17.7898Z" fill="#C98475"/>
<path d="M52.031 32.2547C52.3194 30.5094 54.8862 28.5053 57.0113 29.3438C61.2116 31.0011 65.2564 40.1956 67.3744 39.2369C72.0591 37.1362 74.4525 37.0173 74.9155 37.0173C74.9155 37.0173 74.9285 37.016 74.9523 37.0173C74.9843 37.0173 75.001 37.0185 75.001 37.0185V37.021C75.4723 37.0569 77.9535 37.3356 83.0253 39.4549C85.3474 40.4248 89.6783 44.4268 92.6036 52.5474C96.1807 62.4777 85.1682 54.9838 85.1682 54.9838L86.0597 71.879C86.0597 71.879 89.3329 76.2019 83.5737 75.9901C80.341 75.8179 77.0263 74.3451 77.0263 74.3451C77.0263 74.3451 77.3813 65.7155 74.9641 65.1445C72.5328 65.6882 72.8889 74.3476 72.8889 74.3476C72.8889 74.3476 69.5742 75.8204 66.3415 75.9925C60.5824 76.2043 63.8555 71.8815 63.8555 71.8815L64.455 60.5268L65.2564 47.5693C64.8409 47.6263 61.9298 45.175 58.9559 42.1465C55.1533 38.4318 51.632 34.0433 52.031 32.2547Z" fill="#EEC1AA" stroke="#EEC1AA" stroke-miterlimit="10"/>
<path d="M69.3545 48.2453C67.2472 53.5938 69.0992 61.7788 75.3605 61.7788C81.6218 61.7788 83.4727 53.5951 81.3666 48.2453C80.1283 45.1016 77.6174 43.3688 75.3605 43.3688C73.1037 43.3688 70.5927 45.1016 69.3545 48.2453Z" fill="#C98475"/>
<path d="M61.1036 18.4822C61.1036 15.0387 63.7784 12.248 67.0788 12.248C69.1327 12.248 70.9444 13.3294 72.02 14.9755C72.9234 14.7625 73.8649 14.6485 74.8301 14.6485C75.7953 14.6485 76.8044 14.7699 77.7375 14.9991C78.8108 13.3393 80.6308 12.248 82.6941 12.248C85.9945 12.248 88.6693 15.0387 88.6693 18.4822C88.6693 20.3339 87.8941 21.9974 86.6653 23.1382C87.2055 24.6073 87.5023 26.2027 87.5023 27.8699C87.5023 35.1717 81.8286 41.09 74.8313 41.09C67.8339 41.09 62.1603 35.1705 62.1603 27.8699C62.1603 26.1729 62.4677 24.5503 63.0257 23.059C61.8456 21.9206 61.106 20.2918 61.106 18.4822H61.1036Z" fill="#EEC1AA" stroke="#EEC1AA" stroke-miterlimit="10"/>
<path d="M70.9478 28.7605C70.4254 30.0661 72.1825 31.41 75.0341 31.3518C77.8834 31.2936 79.4743 29.8827 78.8011 28.6032C78.2847 27.6222 76.53 27.0091 74.7801 27.0438C73.0301 27.0784 71.3479 27.7609 70.9478 28.7618V28.7605Z" fill="#C98475"/>
<path d="M79.7746 26.344C78.8173 26.344 78.0413 25.5343 78.0413 24.5355C78.0413 23.5368 78.8173 22.7271 79.7746 22.7271C80.7319 22.7271 81.5079 23.5368 81.5079 24.5355C81.5079 25.5343 80.7319 26.344 79.7746 26.344Z" fill="black"/>
<path d="M70.3759 26.344C69.4187 26.344 68.6426 25.5343 68.6426 24.5355C68.6426 23.5368 69.4187 22.7271 70.3759 22.7271C71.3332 22.7271 72.1093 23.5368 72.1093 24.5355C72.1093 25.5343 71.3332 26.344 70.3759 26.344Z" fill="black"/>
<path d="M78.8948 23.9113C78.5021 23.9113 78.1837 23.7809 78.1837 23.6202C78.1837 23.4594 78.5021 23.3291 78.8948 23.3291C79.2876 23.3291 79.606 23.4594 79.606 23.6202C79.606 23.7809 79.2876 23.9113 78.8948 23.9113Z" fill="white"/>
<path d="M69.3532 23.9101C68.9604 23.9101 68.6421 23.797 68.6421 23.6574C68.6421 23.5179 68.9604 23.4047 69.3532 23.4047C69.7459 23.4047 70.0643 23.5179 70.0643 23.6574C70.0643 23.797 69.7459 23.9101 69.3532 23.9101Z" fill="white"/>
<path d="M69.5458 33.4192C71.2827 34.5105 74.5665 34.6393 74.9191 31.9576C74.9606 31.6381 74.944 31.321 74.8941 31.0138C74.8716 31.0894 74.855 31.1649 74.8348 31.2392C74.7529 31.5984 74.6282 31.9514 74.462 32.2747C73.5182 34.0237 71.1758 33.5815 69.5458 33.4192Z" fill="#C98475"/>
<path d="M80.2437 33.2311C78.73 33.3661 76.3259 33.8207 75.3797 32.2946C75.1054 31.8487 74.9986 31.352 74.8953 30.8268C74.8312 31.1328 74.798 31.4536 74.8288 31.7769C75.1019 34.5044 78.5258 34.2876 80.2425 33.2311H80.2437Z" fill="#C98475"/>
</svg>
