<svg width="102" height="220" viewBox="0 0 102 220" fill="none" xmlns="http://www.w3.org/2000/svg">
<path d="M51 185.408C42.7952 186.84 43.9893 213.891 43.9893 213.891C43.9893 213.891 32.9865 218.444 22.2556 218.977C3.13861 219.632 14.0035 206.267 14.0035 206.267L16.3916 164.154C-7.03267 153.853 1.2549 116.408 8.95922 112.816C9.34148 112.636 23.7216 106.157 24.0802 106.019C42.9252 98.6854 51 98.4786 51 98.4786" fill="#EEC1AA"/>
<path d="M51 185.408C42.7952 186.84 43.9893 213.891 43.9893 213.891C43.9893 213.891 32.9865 218.444 22.2556 218.977C3.13861 219.632 14.0035 206.267 14.0035 206.267L16.3916 164.154C-7.03267 153.853 1.2549 116.408 8.95922 112.816C9.34148 112.636 23.7216 106.157 24.0802 106.019C42.9252 98.6854 51 98.4786 51 98.4786" stroke="#EEC1AA" stroke-miterlimit="10"/>
<path d="M51 185.408C59.2048 186.84 58.0107 213.891 58.0107 213.891C58.0107 213.891 69.0135 218.444 79.7444 218.977C98.8614 219.632 87.9965 206.267 87.9965 206.267L85.6084 164.154C109.033 153.853 100.745 116.408 93.0408 112.816C92.6585 112.636 78.2784 106.157 77.9198 106.019C59.0748 98.6854 51 98.4786 51 98.4786" fill="#EEC1AA"/>
<path d="M51 185.408C59.2048 186.84 58.0107 213.891 58.0107 213.891C58.0107 213.891 69.0135 218.444 79.7444 218.977C98.8614 219.632 87.9965 206.267 87.9965 206.267L85.6084 164.154C109.033 153.853 100.745 116.408 93.0408 112.816C92.6585 112.636 78.2784 106.157 77.9198 106.019C59.0748 98.6854 51 98.4786 51 98.4786" stroke="#EEC1AA" stroke-miterlimit="10"/>
<path d="M70.9366 134.958C77.9316 151.494 71.7839 176.799 51 176.799C30.216 176.799 24.0723 151.498 31.0633 134.958C35.1736 125.239 43.5084 119.882 51 119.882C58.4915 119.882 66.8263 125.239 70.9366 134.958Z" fill="#C98475"/>
<path d="M87.4724 121.39C79.6893 131.293 51 144.559 51 158.735C51 158.735 60.4619 170.12 84.3434 164.786" fill="#EEC1AA"/>
<path d="M87.4724 121.39C79.6893 131.293 51 144.559 51 158.735C51 158.735 60.4619 170.12 84.3434 164.786" stroke="#EEC1AA" stroke-miterlimit="10"/>
<path d="M14.5276 121.39C22.3107 131.293 51 144.559 51 158.735C51 158.735 41.538 170.12 17.6566 164.786" fill="#EEC1AA"/>
<path d="M14.5276 121.39C22.3107 131.293 51 144.559 51 158.735C51 158.735 41.538 170.12 17.6566 164.786" stroke="#EEC1AA" stroke-miterlimit="10"/>
<path d="M97.1431 41.6953C97.1431 31.0493 88.2645 22.4215 77.3089 22.4215C70.4913 22.4215 64.4776 25.7647 60.9072 30.854C57.9082 30.1954 54.7832 29.8431 51.5793 29.8431C48.3754 29.8431 45.0257 30.2183 41.9282 30.9268C38.3657 25.7953 32.3244 22.4215 25.4752 22.4215C14.5197 22.4215 5.64099 31.0493 5.64099 41.6953C5.64099 47.4203 8.21435 52.5633 12.2931 56.0902C10.5 60.632 9.51483 65.5643 9.51483 70.7188C9.51483 93.2935 28.3481 111.591 51.5753 111.591C74.8026 111.591 93.6358 93.2897 93.6358 70.7188C93.6358 65.4724 92.6151 60.4558 90.7629 55.8451C94.6801 52.3259 97.1353 47.2901 97.1353 41.6953H97.1431Z" fill="#EEC1AA" stroke="#EEC1AA" stroke-miterlimit="10"/>
<path d="M51.6148 19.7447C71.3401 19.7447 87.3306 15.3247 87.3306 9.87237C87.3306 4.42001 71.3401 0 51.6148 0C31.8895 0 15.899 4.42001 15.899 9.87237C15.899 15.3247 31.8895 19.7447 51.6148 19.7447Z" fill="#E6E6E6"/>
<path d="M51.6148 21.2229C71.007 21.2229 86.7276 16.8732 86.7276 11.5076C86.7276 6.14192 71.007 1.79221 51.6148 1.79221C32.2225 1.79221 16.502 6.14192 16.502 11.5076C16.502 16.8732 32.2225 21.2229 51.6148 21.2229Z" fill="#E6E6E6"/>
<path d="M51.6148 22.6934C70.6741 22.6934 86.1247 18.4157 86.1247 13.1389C86.1247 7.86209 70.6741 3.58438 51.6148 3.58438C32.5556 3.58438 17.105 7.86209 17.105 13.1389C17.105 18.4157 32.5556 22.6934 51.6148 22.6934Z" fill="#E6E6E6"/>
<path d="M51.6148 24.1716C70.3411 24.1716 85.5217 19.9642 85.5217 14.7741C85.5217 9.584 70.3411 5.37659 51.6148 5.37659C32.8885 5.37659 17.7079 9.584 17.7079 14.7741C17.7079 19.9642 32.8885 24.1716 51.6148 24.1716Z" fill="#E6E6E6"/>
<path d="M51.6148 25.6498C70.0059 25.6498 84.9149 21.5127 84.9149 16.4093C84.9149 11.3059 70.0059 7.16876 51.6148 7.16876C33.2237 7.16876 18.3148 11.3059 18.3148 16.4093C18.3148 21.5127 33.2237 25.6498 51.6148 25.6498Z" fill="#E6E6E6"/>
<path d="M51.6148 27.128C69.6729 27.128 84.3119 23.0611 84.3119 18.0445C84.3119 13.0278 69.6729 8.96097 51.6148 8.96097C33.5567 8.96097 18.9177 13.0278 18.9177 18.0445C18.9177 23.0611 33.5567 27.128 51.6148 27.128Z" fill="#E6E6E6"/>
<path d="M51.6148 28.6061C69.3399 28.6061 83.7089 24.6096 83.7089 19.6796C83.7089 14.7497 69.3399 10.7531 51.6148 10.7531C33.8897 10.7531 19.5206 14.7497 19.5206 19.6796C19.5206 24.6096 33.8897 28.6061 51.6148 28.6061Z" fill="#E6E6E6"/>
<path d="M51.6148 30.0767C69.0069 30.0767 83.106 26.1521 83.106 21.311C83.106 16.4699 69.0069 12.5453 51.6148 12.5453C34.2227 12.5453 20.1237 16.4699 20.1237 21.311C20.1237 26.1521 34.2227 30.0767 51.6148 30.0767Z" fill="#E6E6E6"/>
<path d="M51.6148 31.5548C68.6717 31.5548 82.4991 27.7006 82.4991 22.9462C82.4991 18.1917 68.6717 14.3375 51.6148 14.3375C34.5578 14.3375 20.7305 18.1917 20.7305 22.9462C20.7305 27.7006 34.5578 31.5548 51.6148 31.5548Z" fill="#E6E6E6"/>
<path d="M51.6148 33.033C68.3388 33.033 81.8962 29.2491 81.8962 24.5814C81.8962 19.9137 68.3388 16.1297 51.6148 16.1297C34.8909 16.1297 21.3335 19.9137 21.3335 24.5814C21.3335 29.2491 34.8909 33.033 51.6148 33.033Z" fill="#E6E6E6"/>
<path d="M51.6148 34.5112C68.0057 34.5112 81.2932 30.7975 81.2932 26.2165C81.2932 21.6355 68.0057 17.9219 51.6148 17.9219C35.2239 17.9219 21.9364 21.6355 21.9364 26.2165C21.9364 30.7975 35.2239 34.5112 51.6148 34.5112Z" fill="#E6E6E6"/>
<path d="M51.6148 35.9855C67.6706 35.9855 80.6864 32.3422 80.6864 27.8479C80.6864 23.3536 67.6706 19.7103 51.6148 19.7103C35.5591 19.7103 22.5433 23.3536 22.5433 27.8479C22.5433 32.3422 35.5591 35.9855 51.6148 35.9855Z" fill="#E6E6E6"/>
<path d="M51.6148 37.4599C67.3376 37.4599 80.0834 33.8885 80.0834 29.4831C80.0834 25.0776 67.3376 21.5063 51.6148 21.5063C35.8921 21.5063 23.1462 25.0776 23.1462 29.4831C23.1462 33.8885 35.8921 37.4599 51.6148 37.4599Z" fill="#E6E6E6"/>
<path d="M51.6148 38.938C67.0045 38.938 79.4804 35.437 79.4804 31.1183C79.4804 26.7995 67.0045 23.2985 51.6148 23.2985C36.225 23.2985 23.7491 26.7995 23.7491 31.1183C23.7491 35.437 36.225 38.938 51.6148 38.938Z" fill="#E6E6E6"/>
<path d="M51.6148 40.4162C66.6716 40.4162 78.8775 36.9855 78.8775 32.7534C78.8775 28.5214 66.6716 25.0907 51.6148 25.0907C36.5581 25.0907 24.3522 28.5214 24.3522 32.7534C24.3522 36.9855 36.5581 40.4162 51.6148 40.4162Z" fill="#E6E6E6"/>
<path d="M51.6148 41.8944C66.3363 41.8944 78.2705 38.5339 78.2705 34.3886C78.2705 30.2433 66.3363 26.8829 51.6148 26.8829C36.8932 26.8829 24.959 30.2433 24.959 34.3886C24.959 38.5339 36.8932 41.8944 51.6148 41.8944Z" fill="#E6E6E6"/>
<path d="M51.6148 43.3687C66.0034 43.3687 77.6677 40.0786 77.6677 36.02C77.6677 31.9614 66.0034 28.6712 51.6148 28.6712C37.2263 28.6712 25.562 31.9614 25.562 36.02C25.562 40.0786 37.2263 43.3687 51.6148 43.3687Z" fill="#E6E6E6"/>
<path d="M51.6148 44.8431C65.6704 44.8431 77.0647 41.6249 77.0647 37.6552C77.0647 33.6854 65.6704 30.4673 51.6148 30.4673C37.5592 30.4673 26.1649 33.6854 26.1649 37.6552C26.1649 41.6249 37.5592 44.8431 51.6148 44.8431Z" fill="#E6E6E6"/>
<path d="M67.6382 21.5063H57.132V10.6459H46.1016V21.5063H35.5953V30.923H46.1016V41.7833H57.132V30.923H67.6382V21.5063Z" fill="#C1272D"/>
<path d="M64.7614 75.0193C66.4954 79.0555 60.6629 83.2105 51.1971 83.0305C41.7391 82.8505 36.4584 78.4888 38.6928 74.5329C40.4071 71.5 46.2316 69.6044 52.0404 69.7116C57.8492 69.8189 63.4333 71.9289 64.7614 75.0231V75.0193Z" fill="#C98475"/>
<path d="M78.7396 53.8232C72.9741 57.1969 62.0738 57.5952 60.9034 49.3044C60.7654 48.3164 60.8206 47.3361 60.9861 46.3864C61.061 46.62 61.1162 46.8535 61.1832 47.0833C61.4551 48.1939 61.8689 49.2853 62.4206 50.2848C65.5536 55.692 73.3288 54.3248 78.7396 53.8232Z" fill="#C98475"/>
<path d="M24.0487 52.8812C29.8141 56.2549 40.7145 56.6532 41.8849 48.3624C42.0228 47.3744 41.9677 46.394 41.8021 45.4443C41.7273 45.6779 41.6721 45.9115 41.6051 46.1413C41.3332 47.2518 40.9194 48.3432 40.3677 49.3427C37.2347 54.7499 29.4595 53.3828 24.0487 52.8812Z" fill="#C98475"/>
<path d="M36.0248 92.4051C36.88 91.4094 37.8612 90.4253 39.1144 89.9198C39.477 89.7704 40.009 89.6632 40.3834 89.6517C40.5292 89.6479 40.675 89.6517 40.8208 89.6594C40.8838 89.6594 40.9469 89.667 41.01 89.6747C40.8681 89.6517 40.9824 89.6747 41.01 89.6747C41.3095 89.7245 41.6011 89.8011 41.8888 89.9006C42.9646 90.2721 44.0602 91.1912 44.9035 92.0681C45.4276 92.6119 45.8572 93.2284 46.3931 93.7607C46.8779 94.2432 47.4138 94.6836 47.9931 95.0551C50.1724 96.4567 52.797 96.2652 54.9171 94.8521C57.1792 93.3395 58.5821 90.881 61.1555 89.7896C61.0491 89.8355 61.3486 89.7168 61.3998 89.7015C61.5535 89.6479 61.7111 89.6019 61.8688 89.5636C62.0028 89.5292 62.1407 89.5024 62.2786 89.4756C62.2865 89.4756 62.4757 89.4487 62.3535 89.4641C62.2392 89.4756 62.4678 89.4564 62.4875 89.4564C62.6412 89.4488 62.7949 89.4449 62.9525 89.4488C63.0116 89.4488 63.3545 89.4794 63.1614 89.4526C63.4372 89.487 63.7091 89.5598 63.9692 89.6441C64.2096 89.7245 64.3594 89.7934 64.6668 89.9657C64.9308 90.1151 65.1909 90.2874 65.4037 90.4597C66.0185 90.9614 66.5662 91.5511 67.0431 92.1753C67.4214 92.6732 68.0677 92.9259 68.6588 92.5889C69.1632 92.3017 69.4667 91.5205 69.0844 91.0188C67.4569 88.882 65.1436 86.8485 62.1959 87.1855C60.8954 87.3349 59.6895 87.8365 58.6136 88.5527C57.3132 89.4219 56.2925 90.498 55.2088 91.5971C54.7201 92.0949 54.196 92.5698 53.6048 92.9489C53.0807 93.2859 52.6788 93.4888 52.1389 93.6344C52.0009 93.6727 51.863 93.6995 51.7211 93.7263C51.5123 93.7684 51.7724 93.7339 51.5596 93.7454C51.4216 93.7531 51.2837 93.7569 51.1458 93.7531C51.0867 93.7531 50.7399 93.7263 50.933 93.7492C50.3143 93.6727 49.9714 93.5271 49.4749 93.2438C48.2296 92.5353 47.4532 91.3328 46.4522 90.3142C45.3843 89.2343 44.1508 88.3037 42.7084 87.7561C39.4533 86.5192 36.4031 88.3995 34.3578 90.7852C33.948 91.2601 33.877 91.9417 34.3578 92.4089C34.7795 92.8187 35.6189 92.8876 36.0287 92.4089L36.0248 92.4051Z" fill="#C98475"/>
<path d="M28.2535 59.6057C31.95 59.9733 35.8002 60.5822 39.347 61.7732C40.3755 62.1178 41.4868 62.5314 42.3262 63.2169L42.4445 62.3131C41.7745 62.7688 41.014 63.1211 40.2731 63.4505C38.2317 64.3542 36.0446 64.9669 33.8456 65.3843C32.0013 65.7367 30.1294 65.932 28.2535 66.0124C27.4969 66.0468 27.493 67.1957 28.2535 67.1612C33.0416 66.9544 38.0583 66.043 42.2868 63.7453C42.543 63.6075 42.7991 63.4658 43.0395 63.3011C43.3233 63.1058 43.473 62.6539 43.1578 62.3974C41.3923 60.9575 38.9095 60.3524 36.7224 59.8393C34.5352 59.3261 32.0958 58.924 29.755 58.6253C29.2545 58.5602 28.754 58.499 28.2496 58.4492C27.493 58.3726 27.4969 59.5253 28.2496 59.598L28.2535 59.6057Z" fill="black"/>
<path d="M75.3031 58.4568C73.912 58.5947 72.5287 58.79 71.1495 59.0121C68.6194 59.418 66.0658 59.9082 63.65 60.7507C62.4993 61.1528 61.3447 61.6353 60.3989 62.405C60.0836 62.6616 60.2333 63.1135 60.5171 63.3088C61.2186 63.7875 62.0185 64.1551 62.7988 64.4959C64.9505 65.4341 67.2244 66.0928 69.5416 66.5255C71.4411 66.8817 73.3721 67.0846 75.3031 67.1689C76.0637 67.2033 76.0637 66.0545 75.3031 66.02C70.716 65.8209 65.8766 64.9554 61.8254 62.7382C61.5851 62.6042 61.3407 62.4701 61.1122 62.3169L61.2304 63.2207C61.9516 62.631 62.8855 62.248 63.7683 61.9302C64.9426 61.5089 66.1525 61.1873 67.3702 60.9077C69.514 60.4137 71.7485 60.0461 73.9002 59.7703C74.3652 59.7129 74.8341 59.6555 75.3031 59.6057C76.0518 59.5329 76.0597 58.3802 75.3031 58.4568Z" fill="black"/>
<path d="M84.899 162.982C78.4439 164.755 71.4805 165.759 64.8323 164.403C62.7318 163.974 60.6826 163.315 58.7634 162.377C57.3723 161.695 55.926 160.788 54.8029 159.915C53.9674 159.264 53.2108 158.529 52.399 157.851L52.5724 158.257C52.5881 155.499 53.6916 153.114 55.2758 150.873C56.3083 149.414 57.4314 148.105 58.724 146.868C61.2225 144.471 63.9062 142.253 66.5978 140.067C69.7741 137.482 73.0056 134.962 76.2568 132.465C79.0272 130.34 81.8173 128.237 84.6192 126.154C85.9867 125.139 87.3581 124.132 88.7295 123.121C88.7492 123.106 88.7689 123.094 88.7847 123.079C89.3876 122.643 88.7965 121.643 88.1896 122.087C85.301 124.193 82.436 126.334 79.5828 128.486C74.1839 132.561 68.8204 136.685 63.6264 141.009C61.4984 142.778 59.3821 144.578 57.4157 146.515C56.2728 147.641 55.2837 148.859 54.3536 150.161C53.0453 151.988 51.934 153.994 51.5635 156.216C51.4768 156.744 51.4177 157.272 51.398 157.809C51.3822 158.211 51.3822 158.49 51.6857 158.774C51.863 158.938 52.0482 159.095 52.2256 159.256C52.7261 159.708 53.2305 160.148 53.7586 160.57C55.398 161.879 57.1989 162.982 59.1378 163.828C66.0579 166.838 73.9474 166.59 81.2222 165.065C82.5621 164.786 83.8902 164.457 85.2064 164.097C85.9354 163.897 85.6281 162.787 84.8911 162.99L84.899 162.982Z" fill="#C98475"/>
<path d="M16.6399 164.089C24.3994 166.218 33.0495 167.26 40.8129 164.564C44.3755 163.327 47.4611 161.297 50.1724 158.758C50.4483 158.498 50.464 158.249 50.4522 157.878C50.4325 157.272 50.3695 156.667 50.2631 156.074C50.0739 155.017 49.7113 153.998 49.2463 153.026C48.738 151.969 48.0917 150.977 47.402 150.023C46.7991 149.192 46.1843 148.35 45.4868 147.592C43.8001 145.765 41.8927 144.122 40.0011 142.502C34.8702 138.121 29.5146 133.985 24.1393 129.899C20.7265 127.307 17.2941 124.737 13.8301 122.206C13.7749 122.168 13.7197 122.126 13.6646 122.087C13.0537 121.643 12.4665 122.639 13.0695 123.079C14.1887 123.895 15.3 124.718 16.4153 125.541C19.0911 127.525 21.7511 129.524 24.3994 131.542C27.6506 134.024 30.8821 136.532 34.0662 139.098C36.8839 141.365 39.6859 143.663 42.3341 146.113C43.2838 146.99 44.273 147.883 45.0809 148.89C46.8542 151.099 48.5921 153.497 49.1163 156.307C49.2345 156.951 49.2778 157.602 49.2818 158.253L49.4552 157.847C48.7655 158.425 48.1192 159.049 47.4217 159.62C46.3222 160.512 45.0493 161.359 43.7055 162.067C39.41 164.33 34.4721 165.119 29.6249 165.004C25.3294 164.901 21.0851 164.112 16.963 162.982C16.23 162.779 15.9148 163.89 16.6478 164.089H16.6399Z" fill="#C98475"/>
</svg>
