<svg width="119" height="220" viewBox="0 0 119 220" fill="none" xmlns="http://www.w3.org/2000/svg">
<g clip-path="url(#clip0_612_4065)">
<path d="M104.061 42.8655C104.061 32.1435 95.4127 23.454 84.7418 23.454C78.1013 23.454 72.2438 26.821 68.7661 31.9468C65.8451 31.2834 62.8012 30.9286 59.6805 30.9286C56.5598 30.9286 53.2971 31.3065 50.2801 32.0201C46.8101 26.8519 40.9258 23.454 34.2545 23.454C23.5836 23.454 14.9355 32.1435 14.9355 42.8655C14.9355 48.6315 17.4421 53.8113 21.4149 57.3635C19.6684 61.9377 18.7088 66.9053 18.7088 72.0966C18.7088 94.8328 37.0528 113.261 59.6767 113.261C82.3006 113.261 100.645 94.829 100.645 72.0966C100.645 66.8128 99.6504 61.7603 97.8463 57.1166C101.662 53.5722 104.053 48.5004 104.053 42.8655H104.061Z" fill="#EEC1AA"/>
<path d="M72.2322 74.8736C73.9211 78.9388 68.2402 83.1235 59.0202 82.9422C49.8002 82.7609 44.6644 78.368 46.8408 74.3838C48.5105 71.3292 54.1838 69.42 59.8417 69.528C65.4995 69.636 70.9387 71.7612 72.2322 74.8775V74.8736Z" fill="#C98475"/>
<path d="M43.6896 67.345C46.7847 67.345 49.2938 64.8239 49.2938 61.714C49.2938 58.6041 46.7847 56.083 43.6896 56.083C40.5945 56.083 38.0854 58.6041 38.0854 61.714C38.0854 64.8239 40.5945 67.345 43.6896 67.345Z" fill="black"/>
<path d="M74.0822 67.345C77.1773 67.345 79.6863 64.8239 79.6863 61.714C79.6863 58.6041 77.1773 56.083 74.0822 56.083C70.9871 56.083 68.478 58.6041 68.478 61.714C68.478 64.8239 70.9871 67.345 74.0822 67.345Z" fill="black"/>
<path d="M46.5375 59.7701C47.8074 59.7701 48.8368 59.3643 48.8368 58.8638C48.8368 58.3632 47.8074 57.9574 46.5375 57.9574C45.2677 57.9574 44.2383 58.3632 44.2383 58.8638C44.2383 59.3643 45.2677 59.7701 46.5375 59.7701Z" fill="white"/>
<path d="M77.3871 59.7701C78.657 59.7701 79.6864 59.4179 79.6864 58.9833C79.6864 58.5488 78.657 58.1965 77.3871 58.1965C76.1173 58.1965 75.0879 58.5488 75.0879 58.9833C75.0879 59.4179 76.1173 59.7701 77.3871 59.7701Z" fill="white"/>
<path d="M76.7618 89.3792C71.1461 92.7771 60.5289 93.1782 59.3889 84.8281C59.2545 83.8331 59.3083 82.8457 59.4695 81.8892C59.5424 82.1245 59.5962 82.3598 59.6614 82.5912C59.9263 83.7097 60.3293 84.8089 60.8667 85.8155C63.9183 91.2614 71.4916 89.8845 76.7618 89.3792Z" fill="#C98475"/>
<path d="M42.1733 88.7891C47.0674 89.2095 54.8403 90.625 57.8995 85.8734C58.7862 84.4849 59.1317 82.9383 59.4656 81.303C59.6729 82.2556 59.7804 83.2546 59.6806 84.2612C58.7977 92.754 47.7276 92.079 42.1772 88.7891H42.1733Z" fill="#C98475"/>
<path d="M116.689 149.785C107.231 124.496 93.2285 112.038 85.7205 109.018C67.3649 101.632 59.4999 107.387 59.4999 107.387C59.4999 107.387 51.6349 101.636 33.2794 109.018C25.7714 112.038 11.7686 124.5 2.31068 149.785C-9.25461 180.706 26.351 157.372 26.351 157.372L20.6393 206.701C20.6393 206.701 12.7666 222.456 32.1701 219.502C51.5735 216.547 53.3046 209.331 53.3046 209.331C53.3046 209.331 51.5082 190.421 59.4999 188.975C67.4916 190.417 65.6952 209.331 65.6952 209.331C65.6952 209.331 67.4263 216.547 86.8298 219.502C106.233 222.456 98.3605 206.701 98.3605 206.701L92.6489 157.372C92.6489 157.372 128.254 180.706 116.689 149.785Z" fill="#EEC1AA"/>
<path d="M78.9187 135.335C85.732 151.989 79.744 177.475 59.4999 177.475C39.2559 177.475 33.2717 151.993 40.0811 135.335C44.0846 125.546 52.203 120.151 59.4999 120.151C66.7968 120.151 74.9152 125.546 78.9187 135.335Z" fill="#C98475"/>
<path d="M60.7016 20.758C79.9144 20.758 95.4895 16.3064 95.4895 10.815C95.4895 5.32369 79.9144 0.87207 60.7016 0.87207C41.4887 0.87207 25.9136 5.32369 25.9136 10.815C25.9136 16.3064 41.4887 20.758 60.7016 20.758Z" fill="white"/>
<path d="M60.7017 22.2468C79.5902 22.2468 94.9024 17.866 94.9024 12.462C94.9024 7.05795 79.5902 2.67712 60.7017 2.67712C41.8132 2.67712 26.501 7.05795 26.501 12.462C26.501 17.866 41.8132 22.2468 60.7017 22.2468Z" fill="white"/>
<path d="M60.7015 23.7278C79.2657 23.7278 94.315 19.4195 94.315 14.1049C94.315 8.79036 79.2657 4.48206 60.7015 4.48206C42.1374 4.48206 27.0881 8.79036 27.0881 14.1049C27.0881 19.4195 42.1374 23.7278 60.7015 23.7278Z" fill="white"/>
<path d="M60.7017 25.2166C78.9415 25.2166 93.7278 20.9791 93.7278 15.7518C93.7278 10.5246 78.9415 6.28711 60.7017 6.28711C42.4618 6.28711 27.6755 10.5246 27.6755 15.7518C27.6755 20.9791 42.4618 25.2166 60.7017 25.2166Z" fill="white"/>
<path d="M60.7016 26.7054C78.615 26.7054 93.1366 22.5386 93.1366 17.3988C93.1366 12.2589 78.615 8.09216 60.7016 8.09216C42.7882 8.09216 28.2666 12.2589 28.2666 17.3988C28.2666 22.5386 42.7882 26.7054 60.7016 26.7054Z" fill="white"/>
<path d="M60.7015 28.194C78.2905 28.194 92.5492 24.0981 92.5492 19.0456C92.5492 13.993 78.2905 9.89709 60.7015 9.89709C43.1125 9.89709 28.8538 13.993 28.8538 19.0456C28.8538 24.0981 43.1125 28.194 60.7015 28.194Z" fill="white"/>
<path d="M60.7016 29.6828C77.9663 29.6828 91.962 25.6577 91.962 20.6925C91.962 15.7273 77.9663 11.7021 60.7016 11.7021C43.4369 11.7021 29.4412 15.7273 29.4412 20.6925C29.4412 25.6577 43.4369 29.6828 60.7016 29.6828Z" fill="white"/>
<path d="M60.7015 31.1638C77.6418 31.1638 91.3746 27.2112 91.3746 22.3354C91.3746 17.4597 77.6418 13.5071 60.7015 13.5071C43.7612 13.5071 30.0283 17.4597 30.0283 22.3354C30.0283 27.2112 43.7612 31.1638 60.7015 31.1638Z" fill="white"/>
<path d="M60.7017 32.6526C77.3155 32.6526 90.7837 28.7708 90.7837 23.9823C90.7837 19.1939 77.3155 15.3121 60.7017 15.3121C44.0878 15.3121 30.6196 19.1939 30.6196 23.9823C30.6196 28.7708 44.0878 32.6526 60.7017 32.6526Z" fill="white"/>
<path d="M60.7015 34.1414C76.991 34.1414 90.1963 30.3304 90.1963 25.6293C90.1963 20.9282 76.991 17.1172 60.7015 17.1172C44.412 17.1172 31.2068 20.9282 31.2068 25.6293C31.2068 30.3304 44.412 34.1414 60.7015 34.1414Z" fill="white"/>
<path d="M60.7016 35.63C76.6668 35.63 89.6091 31.8898 89.6091 27.2761C89.6091 22.6623 76.6668 18.9221 60.7016 18.9221C44.7365 18.9221 31.7942 22.6623 31.7942 27.2761C31.7942 31.8898 44.7365 35.63 60.7016 35.63Z" fill="white"/>
<path d="M60.7016 37.1149C76.3403 37.1149 89.0179 33.4455 89.0179 28.9191C89.0179 24.3927 76.3403 20.7233 60.7016 20.7233C45.0629 20.7233 32.3853 24.3927 32.3853 28.9191C32.3853 33.4455 45.0629 37.1149 60.7016 37.1149Z" fill="white"/>
<path d="M60.7015 38.5999C76.0158 38.5999 88.4305 35.003 88.4305 30.5661C88.4305 26.1291 76.0158 22.5322 60.7015 22.5322C45.3871 22.5322 32.9724 26.1291 32.9724 30.5661C32.9724 35.003 45.3871 38.5999 60.7015 38.5999Z" fill="white"/>
<path d="M60.7016 40.0886C75.6916 40.0886 87.8434 36.5625 87.8434 32.2129C87.8434 27.8632 75.6916 24.3372 60.7016 24.3372C45.7116 24.3372 33.5598 27.8632 33.5598 32.2129C33.5598 36.5625 45.7116 40.0886 60.7016 40.0886Z" fill="white"/>
<path d="M60.7015 41.5774C75.3671 41.5774 87.2559 38.1221 87.2559 33.8598C87.2559 29.5975 75.3671 26.1422 60.7015 26.1422C46.0358 26.1422 34.147 29.5975 34.147 33.8598C34.147 38.1221 46.0358 41.5774 60.7015 41.5774Z" fill="white"/>
<path d="M60.7016 43.066C75.0408 43.066 86.665 39.6815 86.665 35.5066C86.665 31.3316 75.0408 27.9471 60.7016 27.9471C46.3625 27.9471 34.7383 31.3316 34.7383 35.5066C34.7383 39.6815 46.3625 43.066 60.7016 43.066Z" fill="white"/>
<path d="M60.7015 44.5509C74.7163 44.5509 86.0776 41.2372 86.0776 37.1496C86.0776 33.062 74.7163 29.7483 60.7015 29.7483C46.6867 29.7483 35.3254 33.062 35.3254 37.1496C35.3254 41.2372 46.6867 44.5509 60.7015 44.5509Z" fill="white"/>
<path d="M60.7016 46.0359C74.3921 46.0359 85.4904 42.7947 85.4904 38.7966C85.4904 34.7984 74.3921 31.5573 60.7016 31.5573C47.0112 31.5573 35.9128 34.7984 35.9128 38.7966C35.9128 42.7947 47.0112 46.0359 60.7016 46.0359Z" fill="white"/>
<path d="M76.305 22.5322H66.0717V11.5941H55.3317V22.5322H45.0945V32.0162H55.3317V42.9542H66.0717V32.0162H76.305V22.5322Z" fill="#C1272D"/>
</g>
<defs>
<clipPath id="clip0_612_4065">
<rect width="119" height="219" fill="white" transform="translate(0 0.87207)"/>
</clipPath>
</defs>
</svg>
