<svg width="60" height="60" viewBox="0 0 60 60" fill="none" xmlns="http://www.w3.org/2000/svg">
<path d="M35 10C35 12.7614 32.7614 15 30 15C27.2386 15 25 12.7614 25 10C25 7.23857 27.2386 5 30 5C32.7614 5 35 7.23857 35 10Z" fill="#333333"/>
<path fill-rule="evenodd" clip-rule="evenodd" d="M18.5321 18.8466C18.9624 18.0191 19.8175 17.5 20.7501 17.5H36.2731C38.9256 17.5 41.1379 18.427 42.6921 20.0016C44.2194 21.5488 44.9804 23.5899 44.9998 25.601C45.0191 27.6139 44.2951 29.6759 42.7586 31.2426C41.4411 32.586 39.6439 33.4474 37.5001 33.6839V52.5C37.5001 53.8434 36.4385 54.9466 35.0961 54.9981C33.7536 55.0498 32.6105 54.0311 32.5075 52.6918L31.4194 38.5458C33.4895 37.934 35.0001 36.0184 35.0001 33.75C35.0001 30.9886 32.7615 28.75 30.0001 28.75C29.272 28.75 28.5803 28.9056 27.9564 29.1854C27.7121 28.4658 27.25 27.7876 26.5643 27.2031C25.3108 26.1346 24.2115 25.2306 23.4251 24.5934C23.0325 24.2751 22.7176 24.0233 22.5001 23.8503V22.5H22.2679L20.8083 25.3071L20.6185 25.5495L20.6384 25.5651L20.7004 25.6139C20.7553 25.6573 20.8369 25.7219 20.943 25.8061C21.155 25.9747 21.4643 26.2221 21.8511 26.5356C22.6249 27.1628 23.7079 28.0533 24.9425 29.1058C25.5746 29.6445 25.7026 30.1709 25.6525 30.6049C25.596 31.0945 25.2861 31.6531 24.7211 32.1029C23.8104 32.8279 22.423 33.1296 21.0861 32.3204L15.9384 28.2021C15.0063 27.4565 14.7314 26.1557 15.2821 25.0966L18.5321 18.8466ZM25.106 34.7786C24.3154 35.1421 23.4226 35.3366 22.5001 35.2976V52.5C22.5001 53.8434 23.5618 54.9466 24.9041 54.9981C26.2466 55.0498 27.3898 54.0311 27.4928 52.6918L28.5809 38.5458C26.8325 38.0291 25.4833 36.5824 25.106 34.7786ZM30.0001 36.25C31.3809 36.25 32.5001 35.1308 32.5001 33.75C32.5001 32.3693 31.3809 31.25 30.0001 31.25C28.6194 31.25 27.5001 32.3693 27.5001 33.75C27.5001 35.1308 28.6194 36.25 30.0001 36.25ZM37.5001 22.6344V28.6248C38.3013 28.4461 38.8373 28.1001 39.1888 27.7418C39.721 27.1991 40.0076 26.4486 40 25.649C39.9923 24.8476 39.6886 24.0762 39.1338 23.514C38.7755 23.1511 38.2514 22.8138 37.5001 22.6344Z" fill="#333333"/>
</svg>
