<svg width="60" height="60" viewBox="0 0 60 60" fill="none" xmlns="http://www.w3.org/2000/svg">
<path d="M35 10C35 12.7614 32.7614 15 30 15C27.2386 15 25 12.7614 25 10C25 7.23857 27.2386 5 30 5C32.7614 5 35 7.23857 35 10Z" fill="#333333"/>
<path fill-rule="evenodd" clip-rule="evenodd" d="M18.532 18.8466C18.9623 18.0191 19.8174 17.5 20.75 17.5H36.273C38.9255 17.5 41.1378 18.427 42.692 20.0016C44.2193 21.5488 44.9803 23.5899 44.9996 25.601C45.019 27.6139 44.295 29.6759 42.7585 31.2426C41.441 32.586 39.6438 33.4474 37.5 33.6839V52.5C37.5 53.8434 36.4384 54.9466 35.096 54.9981C33.7535 55.0498 32.6104 54.0311 32.5074 52.6918L31.4193 38.5458C33.4894 37.934 35 36.0184 35 33.75C35 30.9886 32.7614 28.75 30 28.75C29.2719 28.75 28.5801 28.9056 27.9563 29.1854C27.712 28.4658 27.2499 27.7876 26.5641 27.2031C25.3106 26.1346 24.2114 25.2306 23.425 24.5934C23.0324 24.2751 22.7175 24.0233 22.5 23.8503V22.5H22.2678L20.8081 25.3071L20.6184 25.5495L20.6383 25.5651L20.7003 25.6139C20.7551 25.6573 20.8368 25.7219 20.9429 25.8061C21.1549 25.9747 21.4641 26.2221 21.851 26.5356C22.6248 27.1628 23.7078 28.0533 24.9424 29.1058C25.5745 29.6445 25.7025 30.1709 25.6524 30.6049C25.5959 31.0945 25.286 31.6531 24.721 32.1029C23.8103 32.8279 22.4229 33.1296 21.086 32.3204L15.9383 28.2021C15.0061 27.4565 14.7313 26.1557 15.282 25.0966L18.532 18.8466ZM25.1059 34.7786C24.3153 35.1421 23.4225 35.3366 22.5 35.2976V52.5C22.5 53.8434 23.5616 54.9466 24.904 54.9981C26.2465 55.0498 27.3896 54.0311 27.4926 52.6918L28.5808 38.5458C26.8324 38.0291 25.4831 36.5824 25.1059 34.7786ZM30 36.25C31.3808 36.25 32.5 35.1308 32.5 33.75C32.5 32.3693 31.3808 31.25 30 31.25C28.6193 31.25 27.5 32.3693 27.5 33.75C27.5 35.1308 28.6193 36.25 30 36.25ZM37.5 22.6344V28.6248C38.3011 28.4461 38.8371 28.1001 39.1886 27.7418C39.7209 27.1991 40.0075 26.4486 39.9999 25.649C39.9921 24.8476 39.6885 24.0762 39.1336 23.514C38.7754 23.1511 38.2513 22.8138 37.5 22.6344Z" fill="#333333"/>
</svg>
